<?xml version="1.0" encoding="utf-8"?>
<!-- Generator: Adobe Illustrator 27.0.0, SVG Export Plug-In . SVG Version: 6.00 Build 0)  -->
<svg version="1.1" id="Layer_1" xmlns="http://www.w3.org/2000/svg" xmlns:xlink="http://www.w3.org/1999/xlink" x="0px" y="0px"
	 viewBox="0 0 512 512" style="enable-background:new 0 0 512 512;" xml:space="preserve">
<g id="XMLID_1_">
	<rect id="XMLID_3_" x="0" y="180.53" width="18.94" height="107.73"/>
	<path id="XMLID_6_" d="M67.33,210.13c-24.27,0-40.96,18.66-40.96,39.98c0,23.85,18.24,40.26,41.24,40.26
		c21.74,0,40.68-16.13,40.68-40.26C108.15,229.77,92.58,210.13,67.33,210.13L67.33,210.13z M67.05,228.37
		c12.62,0,22.02,9.82,22.02,21.74c0,12.62-10.24,21.88-21.74,21.88c-13.47,0-21.88-10.66-21.88-21.88
		C45.45,237.9,55.13,228.37,67.05,228.37z"/>
	<path id="XMLID_9_" d="M155.7,210.13c-24.27,0-40.96,18.66-40.96,39.98c0,23.85,18.24,40.26,41.24,40.26
		c21.74,0,40.68-16.13,40.68-40.26c0-14.17-6.17-20.48-6.17-20.48l5.19-1.82v-15.29h-26.79C168.89,212.37,163,210.13,155.7,210.13
		L155.7,210.13z M155.56,228.37c12.62,0,22.02,9.82,22.02,21.74c0,12.62-10.24,21.88-21.74,21.88c-13.47,0-21.88-10.66-21.88-21.88
		C133.96,237.9,143.5,228.37,155.56,228.37L155.56,228.37z"/>
	<path id="XMLID_10_" d="M177.45,293.45c0,12.62-10.24,21.88-21.74,21.88c-13.47,0-22.02-10.8-22.02-21.88h-19.22
		c0,23.85,18.24,40.26,41.24,40.26c21.74,0,40.68-15.99,40.68-40.26H177.45z"/>
	<rect id="XMLID_11_" x="204.24" y="212.37" width="18.94" height="75.89"/>
	<polygon id="XMLID_12_" points="241.41,288.26 241.41,229.35 231.31,229.35 231.31,212.37 241.41,212.37 241.41,189.09 
		260.35,189.09 260.35,212.37 270.87,212.37 270.87,229.35 260.35,229.35 260.35,288.26 	"/>
	<circle id="XMLID_13_" cx="213.64" cy="190.77" r="12.48"/>
	<path id="XMLID_16_" d="M313.37,210.13c-24.41,0-40.12,18.66-40.12,40.68c0,22.86,15.71,39.56,40.4,39.56
		c23,0,34.37-14.45,34.37-14.45l-12.62-12.62c0,0-9.54,10.24-21.46,10.24c-9.96,0-17.96-5.61-20.76-15.71h58.92v-5.19
		C352.23,231.87,340.16,210.13,313.37,210.13z M312.67,226.68c8.7,0,17.67,4.63,19.64,15.85h-39.56
		C294.29,234.68,301.17,226.68,312.67,226.68L312.67,226.68z"/>
	<path id="XMLID_17_" d="M399.5,290.37c-24.41,0-41.1-18.66-41.1-40.54c0-22.58,18.8-39.84,40.96-39.84
		c21.46,0,32.4,15.15,32.4,15.15l-13.19,13.19c0,0-7.57-9.82-19.36-9.82c-12.91,0-21.74,9.96-21.74,21.74
		c0,12.48,9.4,22.02,21.6,22.02c11.92,0,19.5-9.82,19.5-9.82l13.33,13.19C431.9,275.36,421.1,290.37,399.5,290.37L399.5,290.37z"/>
	<path id="XMLID_18_" d="M438.78,288.26V180.25h18.94v39.7c0,0,7.29-9.96,23-9.96c19.78,0,31.28,14.73,31.28,33.53v44.75h-18.94
		v-41.8c0-12.62-7.86-17.96-16.55-17.96c-9.96,0-18.8,5.61-18.8,18.94v40.82H438.78z"/>
</g>
</svg>
