<svg xmlns="http://www.w3.org/2000/svg" xmlns:xlink="http://www.w3.org/1999/xlink" width="40" zoomAndPan="magnify" viewBox="0 0 30 37.5" height="50" preserveAspectRatio="xMidYMid meet" version="1.0"><defs><clipPath id="e068fd86b2"><path d="M 2 4.589844 L 29.800781 4.589844 L 29.800781 32.714844 L 2 32.714844 Z M 2 4.589844 " clip-rule="nonzero"/></clipPath></defs><g clip-path="url(#e068fd86b2)"><path fill="#38b6ff" d="M 19.769531 32.746094 L 16.03125 26.90625 L 12.28125 32.746094 L 4.261719 32.746094 L 2.074219 27.007812 L 8.640625 17.984375 L 5.363281 13.160156 L 3.601562 4.589844 L 12.523438 4.589844 L 16.164062 10.382812 L 19.695312 4.589844 L 28.550781 4.589844 L 26.78125 13.152344 L 23.519531 18.050781 L 30.023438 27.007812 L 27.839844 32.746094 Z M 19.769531 32.746094 " fill-opacity="1" fill-rule="nonzero"/></g><path fill="#ffffff" d="M 21.007812 26.773438 L 16.03125 19.140625 L 11.042969 26.773438 L 3.496094 26.773438 L 11.804688 15.355469 L 5.070312 5.597656 L 11.964844 5.597656 L 16.175781 12.300781 L 20.269531 5.597656 L 27.089844 5.597656 L 20.402344 15.476562 L 28.605469 26.773438 Z M 21.007812 26.773438 " fill-opacity="1" fill-rule="nonzero"/></svg>