<svg xmlns="http://www.w3.org/2000/svg" xmlns:xlink="http://www.w3.org/1999/xlink" width="500" zoomAndPan="magnify" viewBox="0 0 375 374.999991" height="500" preserveAspectRatio="xMidYMid meet" version="1.0"><defs><filter x="0%" y="0%" width="100%" height="100%" id="94005d2aac"><feColorMatrix values="0 0 0 0 1 0 0 0 0 1 0 0 0 0 1 0 0 0 1 0" color-interpolation-filters="sRGB"/></filter><g/><mask id="b4f4659ab4"><g filter="url(#94005d2aac)"><rect x="-37.5" width="450" fill="#000000" y="-37.499999" height="449.999989" fill-opacity="0.38"/></g></mask><clipPath id="5a665fdf8b"><path d="M 0.1875 1.292969 L 166.6875 1.292969 L 166.6875 167.792969 L 0.1875 167.792969 Z M 0.1875 1.292969 " clip-rule="nonzero"/></clipPath><clipPath id="ec6f70972d"><rect x="0" width="167" y="0" height="168"/></clipPath></defs><g mask="url(#b4f4659ab4)"><g transform="matrix(1, 0, 0, 1, 104, 103)"><g clip-path="url(#ec6f70972d)"><g clip-path="url(#5a665fdf8b)"><path fill="#ffffff" d="M 83.320312 1.292969 C 37.984375 1.289062 0.292969 38.675781 0.277344 83.65625 C 0.261719 130.617188 37.015625 167.789062 83.46875 167.792969 C 129.28125 167.792969 166.527344 130.523438 166.578125 84.628906 C 166.632812 38.769531 129.1875 1.292969 83.320312 1.292969 Z M 150.324219 75.75 C 150.292969 75.605469 150.277344 75.453125 150.25 75.308594 C 150.015625 74.15625 149.003906 72.476562 149.695312 71.988281 C 150.695312 71.277344 152.0625 72.582031 153.277344 72.996094 C 154.117188 73.28125 154.859375 73.835938 155.6875 74.175781 C 156.878906 74.664062 157.632812 75.335938 157.058594 76.640625 C 156.828125 82.429688 156.234375 88.078125 154.964844 93.636719 C 154.847656 94.144531 154.59375 94.640625 154.578125 95.148438 C 154.542969 96.074219 153.84375 96.351562 153.234375 96.335938 C 152.316406 96.3125 152.667969 95.417969 152.667969 94.921875 C 152.640625 88.4375 151.679688 82.070312 150.324219 75.75 Z M 44.753906 142.589844 C 44.84375 142.390625 44.9375 142.195312 45.03125 141.996094 C 48.679688 142.507812 52.332031 143.023438 56.574219 143.617188 C 53.777344 144.511719 51.5625 145.570312 49.25 145.867188 C 46.957031 146.160156 46.265625 143.703125 44.753906 142.589844 Z M 47.859375 150.496094 C 49.171875 152.570312 50.601562 154.570312 52.285156 157.054688 C 48.808594 155.703125 46.050781 154.226562 43.289062 152.753906 C 42.222656 152.183594 42.351562 151.5625 43.042969 150.824219 C 43.347656 150.496094 43.65625 150.164062 43.996094 149.871094 C 46.222656 147.964844 46.292969 148.015625 47.859375 150.496094 Z M 45.351562 140.996094 C 44.398438 140.8125 43.972656 140.308594 43.667969 139.457031 C 41.242188 132.640625 39.746094 125.613281 38.957031 118.433594 C 38.703125 116.117188 38.640625 113.785156 38.402344 111.46875 C 38.273438 110.210938 38.5625 109.566406 39.960938 109.367188 C 43.21875 108.894531 46.476562 108.363281 49.683594 107.632812 C 51.351562 107.253906 51.761719 108.070312 52.039062 109.324219 C 53.136719 114.273438 54.613281 119.121094 56.253906 123.910156 C 58.121094 129.359375 60.246094 134.703125 62.855469 139.847656 C 64.128906 142.355469 64.09375 142.375 61.378906 142.882812 C 61.011719 142.953125 60.640625 143.015625 60.355469 143.066406 C 55.285156 142.4375 50.289062 141.929688 45.351562 140.996094 Z M 14.105469 74.242188 C 14.253906 78.226562 14.40625 82.207031 15.148438 86.136719 C 15.757812 89.375 16.410156 92.609375 17.011719 95.851562 C 17.101562 96.335938 17.660156 96.871094 17.164062 97.308594 C 16.71875 97.703125 16.210938 97.3125 15.734375 97.097656 C 14.238281 96.417969 12.738281 95.75 11.214844 95.140625 C 9.894531 94.617188 9.335938 93.726562 9.679688 92.324219 C 10.0625 86.4375 10.683594 80.574219 11.976562 74.804688 C 12.039062 74.515625 12.234375 74.257812 12.300781 73.96875 C 12.464844 73.289062 12.871094 72.847656 13.5625 72.953125 C 14.300781 73.0625 14.085938 73.769531 14.105469 74.242188 Z M 15.039062 67.351562 C 14.875 62.9375 17.3125 58.980469 19.121094 54.824219 C 19.457031 54.058594 19.925781 53.941406 20.722656 54.332031 C 27.355469 57.578125 34.414062 59.484375 41.609375 60.980469 C 42.15625 61.097656 43.332031 60.777344 43.160156 62.070312 C 43.03125 63.042969 42.9375 63.875 41.585938 64.117188 C 35.066406 65.292969 28.535156 66.464844 22.207031 68.507812 C 20.507812 69.054688 18.730469 69.457031 17.132812 70.226562 C 15.101562 71.203125 14.855469 70.316406 15.035156 68.621094 C 15.066406 68.324219 15.039062 68.019531 15.039062 67.351562 Z M 121.917969 27.25 C 118.222656 26.710938 114.640625 26.1875 111.058594 25.667969 C 111.0625 25.542969 111.070312 25.421875 111.078125 25.300781 C 113.054688 24.664062 115.023438 24.007812 117.007812 23.398438 C 118.621094 22.902344 120.648438 24.457031 121.917969 27.25 Z M 118.808594 18.503906 C 117.546875 16.515625 116.175781 14.59375 114.585938 12.242188 C 118.113281 13.492188 120.976562 15.050781 123.8125 16.660156 C 124.507812 17.054688 124.441406 17.601562 123.925781 18.140625 C 123.667969 18.414062 123.433594 18.707031 123.167969 18.96875 C 120.808594 21.257812 120.523438 21.199219 118.808594 18.503906 Z M 121.257812 28.160156 C 122.328125 28.34375 122.769531 28.816406 123.109375 29.761719 C 125.648438 36.777344 127.125 44.023438 127.902344 51.421875 C 128.128906 53.585938 128.191406 55.765625 128.414062 57.929688 C 128.53125 59.039062 128.136719 59.621094 127.0625 59.8125 C 123.527344 60.4375 119.984375 61.03125 116.460938 61.726562 C 115.007812 62.011719 115.027344 60.867188 114.851562 60.132812 C 113.660156 55.054688 112.175781 50.0625 110.480469 45.132812 C 108.613281 39.699219 106.484375 34.367188 103.875 29.238281 C 102.574219 26.679688 102.65625 26.574219 105.433594 26.394531 C 106.105469 26.351562 106.78125 26.332031 107.417969 26.304688 C 112.085938 26.734375 116.675781 27.382812 121.257812 28.160156 Z M 140.273438 56.128906 C 137.34375 57.039062 134.402344 57.902344 131.472656 58.792969 C 129.679688 59.339844 129.378906 58.640625 129.308594 57.1875 C 128.976562 50.5 128.027344 43.894531 126.398438 37.398438 C 125.730469 34.730469 124.890625 32.109375 124.125 29.464844 C 127.257812 31.753906 129.542969 34.707031 131.792969 37.6875 C 135.507812 42.617188 138.617188 47.921875 141.464844 53.394531 C 142.316406 55.035156 141.96875 55.605469 140.273438 56.128906 Z M 143.140625 57.066406 C 144.8125 61.042969 146.476562 65.015625 147.660156 69.632812 C 141.746094 67.804688 136.257812 66.226562 130.59375 65.363281 C 130.101562 65.289062 129.8125 65.039062 129.636719 64.5625 C 128.71875 62.050781 129.703125 60.125 132.324219 59.484375 C 135.375 58.738281 138.363281 57.796875 141.304688 56.695312 C 141.976562 56.445312 142.6875 55.980469 143.140625 57.066406 Z M 128.535156 71.632812 C 127.957031 82.152344 126.367188 92.496094 123.820312 102.707031 C 123.410156 104.351562 122.21875 104.664062 120.992188 104.582031 C 119.652344 104.492188 120.15625 103.171875 120.15625 102.402344 C 120.179688 90.160156 118.730469 78.089844 116.132812 66.140625 C 115.859375 64.882812 115.9375 64 117.730469 64.320312 C 120.953125 64.898438 124.214844 65.285156 127.460938 65.734375 C 128.464844 65.871094 128.574219 66.511719 128.546875 67.355469 C 128.5 68.78125 128.535156 70.207031 128.535156 71.632812 Z M 121.441406 107.480469 C 120.941406 107.316406 120.0625 107.609375 120.210938 106.636719 C 120.367188 105.578125 121.265625 105.523438 122.101562 105.484375 C 122.609375 105.460938 122.988281 105.621094 122.839844 106.296875 C 122.566406 106.882812 122.589844 107.855469 121.441406 107.480469 Z M 121.898438 109.492188 C 121.453125 110.734375 121.023438 111.984375 120.589844 113.230469 C 120.4375 113.222656 120.289062 113.210938 120.136719 113.203125 C 120.136719 111.863281 120.136719 110.527344 120.136719 109.1875 C 120.136719 108.488281 120.453125 108.277344 121.128906 108.472656 C 121.664062 108.628906 122.171875 108.734375 121.898438 109.492188 Z M 90.320312 104.621094 C 88.726562 104.667969 88.96875 103.527344 89.03125 102.597656 C 89.414062 96.59375 89.496094 90.582031 89.90625 84.570312 C 89.90625 78.558594 89.941406 72.546875 89.878906 66.535156 C 89.867188 65.203125 90.222656 64.789062 91.621094 64.695312 C 97.304688 64.308594 103.019531 64.34375 108.667969 63.488281 C 108.960938 63.441406 109.269531 63.472656 109.566406 63.464844 C 114.210938 63.398438 114.527344 63.574219 115.476562 68.0625 C 116.980469 75.15625 117.847656 82.339844 118.527344 89.5625 C 118.945312 93.980469 118.632812 98.429688 119.316406 102.816406 C 119.585938 104.542969 118.75 104.917969 117.222656 105.164062 C 108.210938 106.621094 99.292969 104.363281 90.320312 104.621094 Z M 102.207031 106.046875 C 98.253906 106.617188 94.320312 107.125 90.34375 106.929688 C 89.804688 106.902344 89.019531 107.144531 89.046875 106.167969 C 89.070312 105.394531 89.707031 105.457031 90.207031 105.480469 C 94.207031 105.65625 98.207031 105.855469 102.207031 106.046875 Z M 88.230469 102.761719 C 88.253906 104.152344 87.71875 104.59375 86.355469 104.523438 C 84.183594 104.410156 81.996094 104.363281 79.828125 104.480469 C 78.265625 104.566406 77.734375 104.121094 77.757812 102.496094 C 77.84375 96.480469 78.671875 72.417969 78.613281 66.398438 C 78.597656 65.101562 79.023438 64.699219 80.289062 64.753906 C 82.390625 64.847656 84.503906 64.910156 86.597656 64.757812 C 88.457031 64.621094 89.082031 65.179688 88.996094 67.113281 C 88.566406 76.730469 88.890625 86.371094 88.328125 95.992188 C 88.195312 98.242188 88.183594 100.503906 88.230469 102.761719 Z M 74.921875 104.648438 C 68.324219 104.859375 61.730469 105.21875 55.140625 105.605469 C 52.832031 105.738281 51.980469 104.777344 51.507812 102.507812 C 49.152344 91.257812 48.125 79.867188 47.546875 68.417969 C 47.332031 64.144531 47.40625 64.417969 51.605469 63.832031 C 55.914062 63.230469 60.128906 63.746094 64.382812 63.96875 C 67.941406 64.15625 72.25 64.515625 75.9375 64.691406 C 76.523438 64.71875 76.980469 65.203125 76.980469 65.789062 L 76.980469 102.355469 C 77 103.9375 76.683594 104.589844 74.921875 104.648438 Z M 75.65625 106.925781 C 71.886719 106.765625 68.117188 106.574219 64.347656 106.390625 C 64.347656 106.257812 64.347656 106.125 64.347656 105.992188 C 68.128906 105.820312 71.914062 105.636719 75.695312 105.480469 C 76.171875 105.460938 76.828125 105.328125 76.886719 106.109375 C 76.960938 107.066406 76.210938 106.949219 75.65625 106.925781 Z M 38.125 106.054688 C 37.996094 105.308594 37.8125 104.304688 39.242188 104.53125 C 41.730469 104.921875 44.234375 105.25 46.730469 105.609375 C 47.824219 105.765625 48.917969 105.933594 50.011719 106.09375 C 50.035156 106.230469 50.058594 106.367188 50.082031 106.503906 C 46.390625 107.210938 42.71875 108.109375 38.992188 108.53125 C 37.542969 108.695312 38.273438 106.941406 38.125 106.054688 Z M 48.726562 104.867188 C 45.753906 104.1875 42.707031 103.796875 39.671875 103.460938 C 38.1875 103.296875 38.035156 102.59375 38.1875 101.382812 C 38.355469 100.042969 38.398438 98.683594 38.496094 97.335938 C 38.828125 86.871094 40.460938 76.605469 42.980469 66.453125 C 43.378906 64.851562 44.339844 64.664062 45.582031 64.742188 C 47.003906 64.832031 46.511719 66.078125 46.589844 66.820312 C 46.996094 70.703125 46.765625 74.609375 47.09375 78.515625 C 47.78125 86.726562 48.878906 94.855469 50.582031 102.902344 C 50.972656 104.75 50.863281 105.351562 48.726562 104.867188 Z M 45.847656 60.820312 C 44.988281 60.71875 44.671875 60.285156 44.972656 59.445312 C 45.410156 58.222656 45.847656 56.996094 46.285156 55.769531 C 46.433594 55.808594 46.578125 55.851562 46.726562 55.890625 C 46.726562 57.148438 46.734375 58.40625 46.722656 59.664062 C 46.71875 60.25 46.800781 60.933594 45.847656 60.820312 Z M 45.28125 61.652344 C 45.929688 61.71875 46.480469 61.835938 46.453125 62.652344 C 46.421875 63.675781 45.675781 63.582031 45.003906 63.582031 C 44.496094 63.582031 43.839844 63.707031 43.984375 62.851562 C 44.101562 62.15625 44.371094 61.558594 45.28125 61.652344 Z M 76.46875 63.636719 C 72.4375 63.726562 68.433594 63.320312 64.429688 62.785156 C 68.472656 62.753906 72.476562 62.273438 76.5 62.125 C 77.042969 62.105469 77.816406 61.9375 77.800781 62.886719 C 77.78125 63.820312 77.023438 63.621094 76.46875 63.636719 Z M 87.027344 106.933594 C 85.605469 106.941406 84.183594 106.9375 82.761719 106.9375 C 82.761719 106.933594 82.761719 106.929688 82.761719 106.925781 C 81.417969 106.925781 80.070312 106.9375 78.722656 106.921875 C 78.253906 106.914062 77.8125 106.808594 77.816406 106.195312 C 77.820312 105.585938 78.257812 105.464844 78.722656 105.464844 C 81.492188 105.453125 84.261719 105.457031 87.027344 105.464844 C 87.496094 105.46875 87.953125 105.566406 87.933594 106.179688 C 87.914062 106.742188 87.527344 106.933594 87.027344 106.933594 Z M 87.816406 109.714844 C 87.410156 116.835938 87.074219 123.960938 86.664062 131.085938 C 86.496094 134.007812 86.15625 136.917969 86.003906 139.84375 C 85.949219 140.882812 85.671875 141.359375 84.578125 141.269531 C 83.757812 141.203125 82.925781 141.257812 82.101562 141.257812 C 78.308594 141.261719 78.265625 141.261719 78.214844 137.355469 C 78.164062 132.996094 77.800781 114.8125 77.734375 110.078125 C 77.714844 108.691406 78 108.027344 79.570312 108.117188 C 81.8125 108.25 84.074219 108.214844 86.320312 108.140625 C 87.527344 108.101562 87.882812 108.554688 87.816406 109.714844 Z M 79.804688 62.125 C 81.226562 62.117188 82.648438 62.121094 84.070312 62.121094 C 84.070312 62.121094 84.070312 62.117188 84.070312 62.113281 C 85.265625 62.113281 86.464844 62.09375 87.660156 62.121094 C 88.21875 62.136719 88.957031 61.96875 88.933594 62.921875 C 88.917969 63.636719 88.375 63.714844 87.832031 63.753906 C 85.140625 63.953125 82.449219 63.902344 79.757812 63.703125 C 79.308594 63.667969 78.835938 63.609375 78.796875 63.003906 C 78.753906 62.28125 79.226562 62.128906 79.804688 62.125 Z M 89.976562 62.792969 C 90.050781 62.003906 90.695312 62.109375 91.171875 62.175781 C 94.574219 62.660156 98.007812 62.523438 101.40625 62.804688 C 98.015625 63.828125 94.574219 63.492188 91.167969 63.664062 C 90.578125 63.695312 89.886719 63.71875 89.976562 62.792969 Z M 128.53125 64.460938 C 128.410156 65.226562 127.699219 64.675781 127.230469 64.605469 C 123.488281 64.050781 119.746094 63.503906 115.457031 62.871094 C 119.710938 62.09375 123.429688 61.40625 127.152344 60.746094 C 127.625 60.664062 128.367188 60.398438 128.472656 61.125 C 128.628906 62.222656 128.707031 63.378906 128.53125 64.460938 Z M 113.871094 60.339844 C 114.1875 61.570312 113.746094 62.214844 112.441406 62.207031 C 111.542969 62.199219 110.640625 62.207031 109.738281 62.207031 C 103.601562 61.929688 97.484375 61.152344 91.324219 61.335938 C 90.25 61.367188 89.882812 60.972656 89.898438 59.902344 C 90.066406 49.75 89.617188 39.601562 89.386719 29.453125 C 89.355469 28.148438 89.820312 27.820312 91.058594 27.757812 C 94.121094 27.601562 97.1875 27.339844 100.238281 26.980469 C 101.257812 26.859375 101.726562 27.175781 102.148438 28.007812 C 107.390625 38.300781 111.019531 49.175781 113.871094 60.339844 Z M 90.492188 26.96875 C 89.835938 27.066406 89.285156 26.925781 89.253906 26.082031 C 89.21875 25.195312 89.820312 25.136719 90.453125 25.167969 C 93.640625 25.328125 96.824219 25.503906 100.011719 25.671875 C 96.910156 26.820312 93.65625 26.503906 90.492188 26.96875 Z M 99.035156 24.722656 C 95.964844 24.59375 92.894531 24.421875 89.824219 24.265625 C 89.277344 24.238281 89.058594 23.917969 89.023438 23.394531 C 88.714844 18.777344 88.398438 14.15625 88.054688 9.046875 C 93.109375 13.4375 96.605469 18.34375 99.628906 23.636719 C 100.109375 24.476562 99.839844 24.753906 99.035156 24.722656 Z M 87.273438 26.996094 C 86.300781 26.996094 85.332031 26.996094 84.363281 26.996094 C 84.363281 27 84.363281 27.007812 84.363281 27.011719 C 83.617188 27.011719 82.871094 27.035156 82.125 27.003906 C 81.632812 26.984375 80.988281 27.070312 81.082031 26.242188 C 81.140625 25.722656 81.21875 25.121094 81.917969 25.113281 C 83.78125 25.097656 85.644531 25.113281 87.507812 25.144531 C 88.082031 25.152344 88.1875 25.585938 88.21875 26.078125 C 88.257812 26.777344 87.882812 26.996094 87.273438 26.996094 Z M 82.730469 27.96875 C 82.953125 28.003906 83.183594 27.992188 83.40625 27.992188 C 88.46875 28.035156 88.515625 28.035156 88.613281 33.273438 C 88.691406 37.257812 88.964844 54.710938 89.050781 59.445312 C 89.082031 61.050781 88.402344 61.316406 87.019531 61.234375 C 84.847656 61.101562 82.667969 61.066406 80.496094 61.128906 C 79.265625 61.164062 78.929688 60.714844 78.988281 59.558594 C 79.238281 54.601562 79.359375 49.636719 79.660156 44.6875 C 79.96875 39.660156 80.492188 34.652344 80.800781 29.625 C 80.886719 28.195312 81.429688 27.761719 82.730469 27.96875 Z M 78.542969 26.984375 C 74.539062 26.71875 70.542969 26.410156 66.542969 26.117188 C 66.566406 25.945312 66.59375 25.773438 66.617188 25.601562 C 70.566406 25.429688 74.519531 25.234375 78.472656 25.101562 C 79.105469 25.082031 80.074219 24.710938 80.101562 25.988281 C 80.132812 27.214844 79.242188 27.03125 78.542969 26.984375 Z M 78.320312 27.832031 C 79.351562 27.828125 79.953125 27.96875 79.859375 29.335938 C 79.167969 39.382812 78.554688 49.433594 77.957031 59.484375 C 77.890625 60.605469 77.726562 61.328125 76.347656 61.300781 C 69.890625 61.183594 63.457031 61.660156 58.101562 62.191406 C 54.234375 62.320312 51.535156 61.546875 48.773438 61.316406 C 47.171875 61.179688 47.773438 60.058594 47.703125 59.140625 C 46.90625 48.578125 52.726562 40.3125 57.089844 31.5 C 59.085938 27.464844 61.425781 25.484375 66.238281 26.789062 C 70.121094 27.839844 74.261719 27.84375 78.320312 27.832031 Z M 49.109375 44.957031 C 48.597656 42.402344 49.453125 39.949219 49.859375 37.507812 C 50.363281 34.507812 51.320312 31.589844 51.976562 28.613281 C 52.246094 27.390625 52.765625 26.820312 54.066406 26.835938 C 55.621094 26.855469 57.144531 26.152344 59.09375 26.601562 C 55.257812 32.640625 52.070312 38.703125 49.109375 44.957031 Z M 52.929688 22.421875 C 52.601562 23.152344 51.957031 23.023438 51.390625 22.796875 C 50.023438 22.246094 48.546875 21.929688 47.242188 20.894531 C 49.875 18.832031 52.539062 16.980469 56.0625 15.226562 C 54.847656 18.023438 53.90625 20.230469 52.929688 22.421875 Z M 47.261719 22.105469 C 48.335938 22.625 49.46875 23.019531 50.5625 23.503906 C 51.1875 23.78125 52.226562 23.6875 52.085938 24.792969 C 51.953125 25.816406 51.210938 26.253906 50.226562 26.414062 C 47.277344 26.890625 44.335938 27.429688 41.382812 27.886719 C 40.59375 28.007812 39.867188 28.632812 38.621094 28.035156 C 40.917969 26.039062 43.039062 24.179688 45.179688 22.339844 C 45.804688 21.804688 46.476562 21.726562 47.261719 22.105469 Z M 50.503906 27.347656 C 50.699219 27.328125 50.914062 27.46875 51.195312 27.554688 C 49.070312 34.835938 47.9375 42.246094 47.058594 49.738281 C 46.664062 53.089844 45.042969 56.292969 43.980469 59.5625 C 43.742188 60.292969 43.273438 60.34375 42.570312 60.199219 C 35.367188 58.726562 28.273438 56.941406 21.597656 53.746094 C 20.378906 53.164062 20.15625 52.714844 20.835938 51.464844 C 24.976562 43.847656 30.101562 36.964844 36.003906 30.648438 C 36.355469 30.277344 36.796875 29.847656 37.261719 29.742188 C 41.640625 28.753906 46.03125 27.820312 50.503906 27.347656 Z M 21.167969 48.664062 C 20.722656 49.441406 20.316406 50.242188 19.839844 50.996094 C 19.535156 51.484375 19.546875 52.453125 18.5 52 C 17.628906 51.625 17.5 50.984375 17.746094 50.164062 C 18.265625 48.449219 18.75 46.71875 19.304688 45.015625 C 19.695312 43.804688 20.304688 42.660156 20.605469 41.433594 C 22.355469 34.320312 27.339844 31.351562 34.46875 30.742188 C 29.210938 36.28125 24.855469 42.226562 21.167969 48.664062 Z M 17.855469 52.785156 C 18.300781 52.976562 18.808594 53.15625 18.390625 53.886719 C 17.792969 54.933594 17.492188 56.152344 16.582031 57.152344 C 16.0625 55.746094 16.875 54.609375 16.941406 53.394531 C 16.96875 52.917969 17.304688 52.550781 17.855469 52.785156 Z M 15.023438 73.90625 C 15.019531 73 14.914062 72.132812 16.039062 71.699219 C 24.128906 68.582031 32.550781 66.78125 41.09375 65.285156 C 42.136719 65.160156 42.335938 65.644531 42.066406 66.617188 C 39.914062 74.441406 38.679688 82.429688 37.886719 90.488281 C 37.535156 94.070312 37.425781 97.683594 37.300781 101.285156 C 37.257812 102.507812 37.03125 103.074219 35.628906 102.773438 C 30.457031 101.664062 25.328125 100.429688 20.289062 98.824219 C 19.195312 98.476562 18.503906 97.964844 18.214844 96.789062 C 16.355469 89.269531 15.085938 81.675781 15.023438 73.90625 Z M 35.917969 103.796875 C 37.679688 104.078125 37.296875 105.476562 37.234375 106.589844 C 37.175781 107.632812 37.84375 108.890625 35.917969 109.351562 C 32.367188 110.207031 28.890625 111.394531 25.414062 112.53125 C 24.578125 112.804688 24.007812 112.9375 23.601562 112 C 21.890625 108.039062 20.296875 104.042969 19.109375 99.585938 C 24.820312 101.308594 30.285156 102.902344 35.917969 103.796875 Z M 28.71875 112.308594 C 30.855469 111.636719 33.035156 111.109375 35.171875 110.429688 C 36.65625 109.960938 37.332031 110.03125 37.449219 111.960938 C 37.929688 119.898438 39.078125 127.742188 41.359375 135.382812 C 41.820312 136.9375 42.324219 138.480469 42.8125 140.027344 C 35.925781 133.5 30.648438 125.996094 26.398438 117.769531 C 24.3125 113.730469 24.355469 113.683594 28.71875 112.308594 Z M 52.949219 109.019531 C 52.628906 107.78125 52.769531 107.304688 54.21875 107.015625 C 57.261719 106.410156 60.226562 107.117188 63.167969 107.386719 C 67.203125 107.753906 71.253906 107.519531 75.28125 108.027344 C 76.699219 108.207031 76.988281 108.640625 76.972656 109.925781 C 76.910156 114.882812 77.359375 134.5625 77.429688 139.441406 C 77.445312 140.722656 77.242188 141.300781 75.773438 141.363281 C 72.933594 141.480469 70.097656 141.8125 67.273438 142.160156 C 65.808594 142.339844 65 141.886719 64.308594 140.515625 C 59.273438 130.464844 55.75 119.875 52.949219 109.019531 Z M 76.402344 142.3125 C 77.03125 142.273438 77.417969 142.445312 77.460938 143.128906 C 77.511719 143.890625 77.007812 143.988281 76.441406 143.964844 C 73.164062 143.816406 69.886719 143.65625 66.609375 143.5 C 69.847656 142.5625 73.128906 142.511719 76.402344 142.3125 Z M 76.492188 144.867188 C 77.277344 144.867188 77.75 145.214844 77.804688 146.058594 C 78.105469 150.46875 78.417969 154.878906 78.710938 159.289062 C 78.71875 159.390625 78.570312 159.507812 78.324219 159.863281 C 73.453125 155.53125 69.792969 150.378906 66.832031 144.863281 C 70.105469 144.863281 73.296875 144.863281 76.492188 144.867188 Z M 79.480469 142.160156 C 81.261719 142.125 83.042969 142.113281 84.820312 142.101562 C 85.339844 142.101562 85.667969 142.347656 85.640625 142.910156 C 85.613281 143.453125 85.527344 143.988281 84.824219 144.003906 C 83.933594 144.027344 83.042969 144.011719 82.152344 144.011719 C 82.152344 144.003906 82.152344 143.996094 82.152344 143.988281 C 81.335938 143.988281 80.519531 143.996094 79.703125 143.988281 C 79.164062 143.984375 78.644531 143.949219 78.621094 143.207031 C 78.601562 142.59375 78.832031 142.175781 79.480469 142.160156 Z M 86.285156 146.355469 C 86.367188 145.378906 86.769531 145.070312 87.667969 145.03125 C 93.34375 144.808594 99.019531 144.558594 105.308594 144.289062 C 99.613281 151.996094 93.554688 158.394531 85.4375 162.566406 C 85.066406 162.757812 84.628906 163.175781 84.257812 162.75 C 84.082031 162.546875 84.171875 162.042969 84.238281 161.699219 C 85.230469 156.625 85.867188 151.503906 86.285156 146.355469 Z M 86.734375 143.125 C 86.777344 142.125 87.46875 142.128906 88.164062 142.179688 C 91.070312 142.402344 93.976562 142.640625 96.882812 142.867188 C 97.769531 142.9375 98.652344 142.988281 99.539062 143.050781 C 95.703125 144.097656 91.820312 143.964844 87.945312 143.996094 C 87.355469 144 86.695312 144.0625 86.734375 143.125 Z M 104.53125 142.890625 C 99.367188 141.917969 94.125 141.46875 88.882812 141.328125 C 86.941406 141.273438 86.847656 140.671875 86.980469 138.976562 C 87.609375 130.886719 88.050781 122.785156 88.554688 114.6875 C 88.605469 113.859375 88.574219 113.03125 88.613281 112.207031 C 88.796875 108.277344 88.8125 108.402344 92.609375 108.0625 C 98.28125 107.554688 103.980469 107.5625 109.65625 106.976562 C 112.410156 106.691406 115.285156 107.5625 118.101562 107.9375 C 118.972656 108.054688 119.058594 108.679688 119.019531 109.445312 C 118.953125 110.71875 119 112 119 113.277344 C 119.402344 116.773438 118.316406 119.921875 116.941406 123.066406 C 114.113281 129.539062 110.957031 135.824219 107.085938 141.742188 C 106.433594 142.738281 105.820312 143.132812 104.53125 142.890625 Z M 117.742188 124.101562 C 118.210938 126.675781 117.347656 129.132812 116.957031 131.59375 C 116.5 134.449219 115.511719 137.21875 114.957031 140.0625 C 114.644531 141.660156 113.898438 142.371094 112.324219 142.457031 C 110.835938 142.539062 109.351562 142.746094 107.453125 142.941406 C 111.476562 136.726562 114.71875 130.503906 117.742188 124.101562 Z M 115.859375 146.550781 C 117.042969 147.121094 119.015625 147.1875 119.230469 148.296875 C 119.414062 149.25 117.503906 149.898438 116.476562 150.601562 C 114.722656 151.804688 112.875 152.871094 111.066406 153.992188 C 110.980469 153.871094 110.894531 153.746094 110.808594 153.625 C 111.71875 151.582031 112.71875 149.570312 113.507812 147.480469 C 114.011719 146.144531 114.695312 145.988281 115.859375 146.550781 Z M 116.183594 145.6875 C 115.597656 145.410156 114.546875 145.535156 114.734375 144.367188 C 114.90625 143.3125 115.554688 143 116.585938 142.84375 C 120.414062 142.25 124.222656 141.527344 128.039062 140.855469 C 128.125 140.964844 128.210938 141.074219 128.292969 141.179688 C 125.96875 143.160156 123.636719 145.128906 121.324219 147.125 C 120.757812 147.613281 120.269531 147.425781 119.691406 147.164062 C 118.535156 146.640625 117.328125 146.234375 116.183594 145.6875 Z M 115.558594 141.917969 C 117.75 134.1875 118.910156 126.628906 119.8125 118.988281 C 120.179688 115.863281 121.792969 112.894531 122.761719 109.828125 C 123.109375 108.742188 123.875 108.949219 124.5625 109.085938 C 131.695312 110.507812 138.691406 112.359375 145.304688 115.472656 C 146.496094 116.03125 146.585938 116.628906 145.984375 117.730469 C 141.835938 125.332031 136.78125 132.265625 130.8125 138.53125 C 130.402344 138.957031 130.011719 139.355469 129.359375 139.5 C 124.917969 140.496094 120.46875 141.4375 115.558594 141.917969 Z M 142.917969 124.871094 C 144.296875 122.648438 145.59375 120.371094 146.9375 118.121094 C 147.257812 117.582031 147.417969 116.75 148.386719 117.242188 C 149.121094 117.617188 149.273438 118.230469 149.078125 118.949219 C 147.597656 124.472656 145.585938 129.78125 142.816406 134.792969 C 142.546875 135.285156 142.144531 135.609375 141.648438 135.792969 C 138.789062 136.851562 135.925781 137.894531 132.792969 138.347656 C 136.402344 133.980469 139.957031 129.648438 142.917969 124.871094 Z M 148.941406 116.4375 C 148.441406 116.222656 148.050781 115.953125 148.417969 115.265625 C 148.996094 114.183594 149.496094 113.0625 150.277344 111.445312 C 150.625 113.378906 149.988281 114.550781 149.847656 115.785156 C 149.804688 116.175781 149.554688 116.699219 148.941406 116.4375 Z M 147.625 114.511719 C 147.230469 115.328125 146.691406 115.175781 145.988281 114.828125 C 139.355469 111.5625 132.285156 109.675781 125.074219 108.242188 C 124.429688 108.113281 123.433594 108.183594 123.667969 106.984375 C 123.820312 106.195312 123.757812 105.214844 124.84375 105.058594 C 133.992188 103.730469 142.933594 101.5625 151.632812 98.347656 C 152.546875 104.402344 150.078125 109.457031 147.625 114.511719 Z M 148.914062 98.238281 C 141.710938 100.722656 134.308594 102.355469 126.84375 103.746094 C 124.453125 104.191406 124.414062 104.070312 125.007812 101.710938 C 127.761719 90.753906 129.140625 79.605469 129.5 68.324219 C 129.550781 66.769531 129.679688 66.160156 131.558594 66.550781 C 136.667969 67.609375 141.707031 68.871094 146.675781 70.457031 C 147.75 70.800781 148.300781 71.367188 148.566406 72.390625 C 150.402344 79.457031 151.429688 86.644531 151.84375 94.398438 C 152.546875 96.523438 151.117188 97.480469 148.914062 98.238281 Z M 158.023438 75.859375 C 162.484375 77.5 165.433594 81.464844 165.355469 85.40625 C 165.3125 87.464844 164.160156 88.882812 162.859375 90.253906 C 160.894531 92.328125 158.535156 93.832031 155.722656 95.203125 C 157.019531 88.644531 158.234375 82.363281 158.023438 75.859375 Z M 154.765625 47.15625 C 160.542969 57.15625 163.992188 67.714844 164.769531 79.164062 C 162.808594 77.488281 160.914062 75.921875 158.777344 74.691406 C 157.925781 74.199219 158 73.503906 158.015625 72.765625 C 158.144531 64.902344 156.671875 57.296875 154.390625 49.820312 C 154.050781 48.707031 154.070312 48.703125 154.765625 47.15625 Z M 156.78125 67.902344 C 156.863281 69.25 156.964844 70.597656 157.039062 71.664062 C 157.390625 73.449219 156.832031 73.71875 155.589844 72.972656 C 155.523438 72.9375 155.460938 72.886719 155.390625 72.867188 C 150.46875 71.550781 147.441406 68.609375 146.609375 63.371094 C 146.292969 61.351562 145.226562 59.421875 144.320312 57.539062 C 143.703125 56.261719 143.769531 55.609375 145.191406 55.019531 C 147.679688 53.980469 149.984375 52.5625 151.984375 50.730469 C 152.972656 49.828125 153.304688 49.902344 153.707031 51.238281 C 155.332031 56.691406 156.425781 62.226562 156.78125 67.902344 Z M 153.683594 43.488281 C 152.671875 42.015625 151.660156 40.546875 150.648438 39.078125 C 152.515625 39.960938 153.511719 41.445312 153.683594 43.488281 Z M 145.75 31.035156 C 147.050781 32.667969 148.351562 34.300781 149.652344 35.933594 C 147.105469 35.285156 146.855469 32.824219 145.109375 31.542969 C 145.324219 31.375 145.535156 31.203125 145.75 31.035156 Z M 148.261719 38.136719 C 149.726562 41.078125 151.140625 44.035156 152.335938 47.105469 C 152.761719 48.203125 152.640625 48.902344 151.820312 49.671875 C 149.597656 51.75 146.972656 53.171875 144.269531 54.484375 C 142.941406 55.132812 142.757812 54.035156 142.394531 53.289062 C 139.316406 47.003906 135.65625 41.082031 131.355469 35.566406 C 129.746094 33.507812 128.042969 31.527344 126.027344 29.082031 C 132.910156 30.554688 139.074219 32.261719 144.933594 34.984375 C 146.429688 35.679688 147.515625 36.640625 148.261719 38.136719 Z M 142.957031 31.5 C 143.511719 32.074219 144.023438 32.691406 144.554688 33.285156 C 138.96875 31.359375 133.441406 29.554688 127.738281 28.535156 C 124.316406 27.925781 122.535156 26.039062 121.296875 23.09375 C 120.886719 22.125 120.957031 21.59375 121.878906 21.101562 C 122.464844 20.785156 123.199219 20.449219 123.488281 19.914062 C 125.199219 16.789062 126.960938 18.453125 128.828125 19.703125 C 133.957031 23.136719 138.675781 27.054688 142.957031 31.5 Z M 125.667969 14.453125 C 129.546875 15.914062 138.644531 23.777344 140.957031 27.734375 C 140.214844 27.722656 139.910156 27.183594 139.523438 26.839844 C 135.667969 23.390625 131.589844 20.226562 127.152344 17.566406 C 125.863281 16.796875 125.359375 15.882812 125.667969 14.453125 Z M 124.605469 15.597656 C 119.847656 12.714844 114 11.898438 109.964844 7.691406 C 115.382812 9.34375 121.328125 10.007812 124.605469 15.597656 Z M 108.773438 8.65625 C 105.066406 7.808594 101.460938 6.753906 97.8125 5.847656 C 101.617188 6.234375 105.652344 5.652344 108.773438 8.65625 Z M 111.425781 11.027344 C 114.359375 12.363281 115.859375 15.628906 117.601562 18.339844 C 118.214844 19.292969 119.664062 20.734375 118.964844 21.320312 C 117.777344 22.308594 116.832031 20.519531 115.917969 19.804688 C 108.941406 14.355469 101.394531 9.96875 92.992188 7.117188 C 92.441406 6.929688 91.910156 6.691406 91.371094 6.476562 C 98.347656 6.914062 105.140625 8.171875 111.425781 11.027344 Z M 117.417969 22.273438 C 112.289062 23.859375 107.714844 25.851562 102.546875 24.871094 C 101.6875 24.710938 101.195312 24.304688 100.824219 23.636719 C 97.398438 17.511719 93.367188 11.878906 87.871094 7.40625 C 87.742188 7.300781 87.765625 7.003906 87.65625 6.5 C 98.808594 9.363281 108.375 14.769531 117.417969 22.273438 Z M 84.214844 6.328125 C 85.382812 6.515625 86.738281 7.273438 86.886719 8.9375 C 87.160156 12.0625 87.492188 15.183594 87.785156 18.308594 C 87.863281 19.125 87.855469 19.953125 87.945312 20.773438 C 88.332031 24.308594 88.339844 24.304688 84.914062 24.253906 C 81.203125 24.195312 81.203125 24.195312 81.683594 20.5 C 82.203125 16.5 82.664062 12.492188 83.3125 8.515625 C 83.433594 7.769531 83.21875 6.171875 84.214844 6.328125 Z M 80.535156 22.816406 C 80.445312 24.203125 79.601562 24.308594 78.535156 24.285156 C 72.980469 24.160156 67.457031 24.660156 61.449219 25.0625 C 67.179688 16.992188 73.691406 10.351562 82.824219 5.878906 C 81.734375 11.828125 80.886719 17.292969 80.535156 22.816406 Z M 78.808594 6.667969 C 76.484375 8.429688 74.304688 9.972656 72.242188 11.664062 C 68.152344 15.023438 64.628906 18.941406 61.601562 23.269531 C 60.53125 24.800781 59.445312 24.988281 57.816406 24.574219 C 53.507812 23.476562 53.597656 23.558594 55.257812 19.421875 C 56.875 15.386719 59.460938 12.664062 63.667969 11.152344 C 68.289062 9.484375 72.90625 7.851562 77.65625 6.613281 C 77.925781 6.542969 78.242188 6.636719 78.808594 6.667969 Z M 65.765625 6.984375 C 68.347656 6.730469 70.878906 5.960938 73.515625 6.285156 C 69.578125 7.90625 65.453125 8.875 61.804688 11.054688 C 61.550781 11.207031 60.984375 11.175781 60.777344 10.988281 C 60.441406 10.683594 60.804688 10.3125 61.039062 10.046875 C 62.320312 8.582031 63.597656 7.195312 65.765625 6.984375 Z M 61.476562 6.769531 C 55.699219 8.417969 50.0625 10.464844 44.535156 12.785156 C 49.570312 8.980469 55.410156 7.539062 61.476562 6.769531 Z M 44.074219 14.375 C 49.3125 11.824219 54.691406 9.691406 60.488281 8.484375 C 59.136719 10.765625 57.894531 12.964844 55.363281 14.210938 C 52.492188 15.621094 49.84375 17.46875 47.277344 19.40625 C 45.820312 20.5 44.207031 19.828125 42.855469 17.667969 C 41.816406 16.011719 42.503906 15.140625 44.074219 14.375 Z M 41.15625 16.101562 C 41.660156 17.800781 42.609375 19.210938 44.0625 20.222656 C 44.769531 20.714844 44.933594 21.054688 44.167969 21.714844 C 41.503906 24.007812 38.921875 26.398438 36.269531 28.703125 C 35.210938 29.621094 33.757812 29.578125 32.496094 29.996094 C 30.257812 30.738281 27.988281 31.378906 25.199219 32.222656 C 29.539062 25.386719 33.824219 19.332031 41.15625 16.101562 Z M 28.808594 24.851562 C 25.761719 28.492188 24.722656 34.09375 18.441406 35.085938 C 21.679688 31.058594 24.992188 27.703125 28.808594 24.851562 Z M 15.78125 38.703125 C 17.628906 36.964844 19.828125 35.683594 22.75 34.59375 C 20.203125 39.660156 18.324219 44.382812 17.011719 49.308594 C 16.636719 50.714844 16.152344 50.363281 15.367188 49.699219 C 11.652344 46.554688 11.738281 42.515625 15.78125 38.703125 Z M 11.445312 45.253906 C 12.449219 47.933594 13.929688 49.828125 15.875 51.363281 C 16.53125 51.878906 16.140625 52.65625 16.03125 53.277344 C 14.984375 59.296875 13.964844 65.328125 11.863281 71.101562 C 11.566406 71.917969 11.289062 72.664062 10.347656 73.144531 C 7.15625 74.769531 4.136719 76.675781 1.480469 80.0625 C 2.210938 67.441406 5.324219 56.191406 11.445312 45.253906 Z M 1.589844 83.199219 C 2.496094 78.214844 6.9375 76.453125 10.960938 73.917969 C 10.355469 77.496094 9.71875 80.617188 9.328125 83.765625 C 8.949219 86.867188 8.816406 90 8.542969 93.566406 C 4.46875 90.941406 0.636719 88.433594 1.589844 83.199219 Z M 12.1875 121.398438 C 11.453125 121.730469 11.371094 120.898438 11.160156 120.511719 C 5.910156 110.929688 2.65625 100.738281 1.703125 89.183594 C 3.6875 91.492188 5.511719 93.023438 7.589844 94.222656 C 8.433594 94.710938 8.628906 95.433594 8.644531 96.296875 C 8.785156 104.324219 10.082031 112.164062 12.480469 119.824219 C 12.667969 120.414062 12.871094 121.089844 12.1875 121.398438 Z M 13.152344 118.0625 C 11.542969 112.695312 10.355469 107.257812 10.113281 101.652344 C 10.03125 99.710938 9.296875 97.8125 9.773438 95.699219 C 12.273438 96.75 14.589844 97.746094 16.929688 98.6875 C 17.714844 99.003906 18.089844 99.566406 18.308594 100.324219 C 19.457031 104.28125 20.871094 108.148438 22.566406 111.898438 C 23.097656 113.066406 22.90625 113.617188 21.761719 114.109375 C 19.207031 115.210938 16.816406 116.609375 14.738281 118.488281 C 13.953125 119.195312 13.566406 119.445312 13.152344 118.0625 Z M 18.96875 131.773438 C 17.128906 128.621094 15.761719 125.246094 14.402344 121.867188 C 14.027344 120.9375 14.214844 120.304688 14.867188 119.660156 C 17.089844 117.464844 19.792969 116.023438 22.582031 114.710938 C 23.964844 114.058594 24.074219 115.28125 24.425781 115.988281 C 27.730469 122.664062 31.65625 128.941406 36.316406 134.753906 C 37.621094 136.375 38.972656 137.957031 40.753906 140.097656 C 33.34375 138.53125 26.757812 136.695312 20.578125 133.574219 C 19.765625 133.164062 19.375 132.472656 18.96875 131.773438 Z M 22.484375 135.875 C 26.945312 137.363281 31.359375 138.925781 35.929688 139.964844 C 36.949219 140.199219 37.953125 140.574219 38.980469 140.660156 C 42.542969 140.953125 44.347656 143.183594 45.550781 146.246094 C 45.855469 147.019531 45.933594 147.71875 45.15625 147.902344 C 43.152344 148.375 42.515625 152.074219 40.34375 150.859375 C 33.523438 147.027344 27.625 141.929688 22.484375 135.875 Z M 41.085938 154.964844 C 34.882812 151.296875 29.800781 146.601562 25.21875 141.046875 C 26.015625 140.894531 26.273438 141.433594 26.59375 141.734375 C 30.621094 145.445312 34.929688 148.789062 39.617188 151.617188 C 40.882812 152.382812 41.347656 153.324219 41.085938 154.964844 Z M 42.0625 152.941406 C 46.90625 156.53125 52.722656 157.246094 56.972656 161.246094 C 52.453125 161.726562 43.015625 156.746094 42.0625 152.941406 Z M 57.363281 160.214844 C 61.339844 161.253906 64.828125 162.164062 68.3125 163.078125 C 64.636719 162.917969 60.785156 163.441406 57.363281 160.214844 Z M 58.714844 159.550781 C 52.8125 157.984375 50.714844 152.949219 47.8125 148.570312 C 47.644531 148.3125 47.527344 148.015625 47.753906 147.75 C 48.046875 147.410156 48.417969 147.457031 48.765625 147.667969 C 48.960938 147.78125 49.140625 147.917969 49.3125 148.0625 C 56.957031 154.496094 65.492188 159.359375 74.925781 162.765625 C 69.359375 162.457031 64.058594 160.96875 58.714844 159.550781 Z M 72.585938 160.664062 C 64.625 157.757812 57.460938 153.460938 50.859375 148.164062 C 49.542969 147.109375 49.757812 146.640625 51.195312 146.246094 C 55.363281 145.101562 59.453125 143.507812 63.925781 144.277344 C 64.605469 144.394531 65.257812 144.363281 65.644531 145.070312 C 69.125 151.445312 73.484375 157.121094 78.929688 161.945312 C 79.011719 162.015625 78.980469 162.21875 79.019531 162.496094 C 76.71875 162.332031 74.664062 161.421875 72.585938 160.664062 Z M 82.519531 162.804688 C 81.488281 162.683594 80.242188 162.046875 80.039062 160.871094 C 79.203125 155.988281 79.015625 151.03125 78.644531 146.097656 C 78.574219 145.175781 79.105469 144.953125 79.90625 144.988281 C 80.652344 145.019531 81.402344 144.996094 82.152344 144.996094 C 85.421875 145.179688 85.421875 145.179688 85.117188 148.597656 C 84.75 152.777344 84.25 156.9375 83.367188 161.042969 C 83.230469 161.6875 83.566406 162.925781 82.519531 162.804688 Z M 84.171875 166.949219 C 83.769531 166.957031 83.015625 167.292969 83.082031 166.355469 C 83.132812 165.585938 83.597656 165.34375 84.308594 165.476562 C 85.101562 165.625 85.863281 165.839844 86.734375 166.519531 C 85.78125 167.121094 84.953125 166.9375 84.171875 166.949219 Z M 105.886719 145.070312 C 106.554688 144.144531 107.273438 143.796875 108.300781 144.496094 C 108.476562 144.617188 108.726562 144.640625 108.941406 144.691406 C 113.273438 145.71875 113.1875 145.683594 111.53125 149.71875 C 109.964844 153.550781 107.664062 156.382812 103.582031 157.863281 C 98.625 159.664062 93.761719 161.671875 88.472656 162.308594 C 95.472656 157.660156 101.0625 151.753906 105.886719 145.070312 Z M 92.011719 163.261719 C 96.816406 161.625 101.597656 159.925781 106.289062 157.972656 C 102.992188 163.90625 97.03125 162.234375 92.011719 163.261719 Z M 105.917969 162.285156 C 111.316406 160.640625 116.625 158.746094 121.859375 156.632812 C 117.128906 160.1875 111.644531 161.582031 105.917969 162.285156 Z M 122.886719 154.742188 C 117.453125 157.402344 111.863281 159.605469 105.765625 161.082031 C 107.757812 157.71875 110.203125 155.367188 113.457031 153.742188 C 115.640625 152.648438 117.574219 151.054688 119.613281 149.679688 C 121.011719 148.734375 122.746094 149.507812 123.960938 151.578125 C 124.84375 153.078125 124.457031 153.972656 122.886719 154.742188 Z M 130.550781 150.234375 C 129.867188 150.691406 129.132812 151.085938 128.480469 151.582031 C 126.816406 152.839844 125.457031 153.417969 124.398438 150.800781 C 123.992188 149.785156 122.777344 149.101562 121.992188 148.324219 C 127.179688 142.542969 133.105469 138.128906 140.972656 137.4375 C 140.054688 140.378906 133.988281 147.914062 130.550781 150.234375 Z M 137.851562 144.359375 C 141.003906 140.730469 142.105469 135.089844 147.859375 134.15625 C 147.125 136.109375 141.371094 142.183594 137.851562 144.359375 Z M 153.027344 127.816406 C 151.058594 131.1875 147.917969 132.871094 144.480469 134.277344 C 146.628906 129.453125 148.515625 124.652344 149.84375 119.648438 C 150.089844 118.726562 150.402344 118.796875 151.058594 119.214844 C 154.113281 121.160156 154.84375 124.714844 153.027344 127.816406 Z M 151.335938 118.226562 C 150.652344 117.679688 150.5625 117.164062 150.695312 116.308594 C 151.679688 110.042969 152.933594 103.847656 154.984375 97.832031 C 155.21875 97.148438 155.457031 96.511719 156.25 96.132812 C 159.570312 94.550781 162.5625 92.484375 165.390625 89.113281 C 164.5 101.824219 161.441406 113.152344 155.25 124.117188 C 154.46875 121.378906 153.109375 119.632812 151.335938 118.226562 Z M 151.335938 118.226562 " fill-opacity="1" fill-rule="nonzero"/></g></g></g></g><path stroke-linecap="butt" transform="matrix(0.75, 0, 0, 0.75, 41.08594, 218.849971)" fill="none" stroke-linejoin="miter" d="M 37.744791 13.069831 L 30.552082 13.069831 L 30.552082 16.663581 L 19.770831 27.444832 L 8.994789 16.663581 L 8.994789 13.069831 L 1.812497 13.069831 L 1.812497 18.101081 C 1.812497 19.090665 2.130205 19.944831 2.890622 20.710456 L 13.218747 31.038582 L 2.890622 41.366708 C 2.17708 42.080249 1.812497 42.981291 1.812497 43.965666 L 1.812497 49.002125 L 8.994789 49.002125 L 8.994789 45.403166 L 19.770831 34.627124 L 30.552082 45.403166 L 30.552082 49.002125 L 37.744791 49.002125 L 37.744791 43.965666 C 37.744791 42.981291 37.380207 42.080249 36.656249 41.366708 L 26.328123 31.038582 L 36.656249 20.710456 C 37.427082 19.944831 37.744791 19.090665 37.744791 18.101081 Z M 57.494792 34.627124 L 57.494792 27.444832 L 41.333332 27.444832 L 41.333332 34.627124 Z M 109.588545 27.444832 L 88.031252 27.444832 L 88.031252 13.069831 L 80.84896 13.069831 L 80.84896 49.002125 L 88.031252 49.002125 L 88.031252 34.627124 L 109.588545 34.627124 L 109.588545 49.002125 L 116.781254 49.002125 L 116.781254 13.069831 L 109.588545 13.069831 Z M 149.104173 27.444832 L 127.54688 27.444832 L 127.54688 13.069831 L 120.364588 13.069831 L 120.364588 27.444832 C 120.364588 31.392749 123.598963 34.627124 127.54688 34.627124 L 149.104173 34.627124 L 149.104173 49.002125 L 156.296882 49.002125 L 156.296882 13.069831 L 149.104173 13.069831 Z M 195.812509 20.26254 C 195.812509 16.304206 192.578134 13.069831 188.6198 13.069831 L 159.885424 13.069831 L 159.885424 49.002125 L 167.062507 49.002125 L 167.062507 34.627124 L 171.286466 34.627124 L 184.58855 47.924 C 185.296884 48.637542 186.197925 49.002125 187.1823 49.002125 L 195.812509 49.002125 L 195.812509 41.819833 L 188.6198 41.819833 L 181.437508 34.627124 L 188.6198 34.627124 C 192.578134 34.627124 195.812509 31.392749 195.812509 27.444832 Z M 188.6198 20.26254 L 188.6198 27.444832 L 167.062507 27.444832 L 167.062507 20.26254 Z M 228.140636 49.002125 C 232.09897 49.002125 235.333345 45.76775 235.333345 41.819833 L 235.333345 20.26254 C 235.333345 16.304206 232.09897 13.069831 228.140636 13.069831 L 199.401051 13.069831 L 199.401051 49.002125 Z M 206.583343 20.26254 L 228.140636 20.26254 L 228.140636 41.819833 L 206.583343 41.819833 Z M 267.656264 41.819833 L 260.473972 41.819833 L 260.473972 13.069831 L 253.29168 13.069831 L 253.29168 41.819833 L 246.098971 41.819833 L 246.098971 13.069831 L 238.916679 13.069831 L 238.916679 41.819833 C 238.916679 45.76775 242.151054 49.002125 246.098971 49.002125 L 267.656264 49.002125 C 271.614598 49.002125 274.848973 45.76775 274.848973 41.819833 L 274.848973 13.069831 L 267.656264 13.069831 Z M 285.619807 13.069831 C 281.67189 13.069831 278.437515 16.304206 278.437515 20.26254 L 278.437515 49.002125 L 285.619807 49.002125 L 285.619807 34.627124 L 307.171892 34.627124 L 307.171892 49.002125 L 314.3646 49.002125 L 314.3646 20.26254 C 314.3646 16.304206 311.130225 13.069831 307.171892 13.069831 Z M 285.619807 20.26254 L 307.171892 20.26254 L 307.171892 27.444832 L 285.619807 27.444832 Z M 353.885436 20.26254 C 353.885436 16.304206 350.651061 13.069831 346.692727 13.069831 L 317.953142 13.069831 L 317.953142 49.002125 L 325.135434 49.002125 L 325.135434 34.627124 L 329.354185 34.627124 L 342.656269 47.924 C 343.369811 48.637542 344.265644 49.002125 345.255227 49.002125 L 353.885436 49.002125 L 353.885436 41.819833 L 346.692727 41.819833 L 339.510435 34.627124 L 346.692727 34.627124 C 350.651061 34.627124 353.885436 31.392749 353.885436 27.444832 Z M 346.692727 20.26254 L 346.692727 27.444832 L 325.135434 27.444832 L 325.135434 20.26254 Z M 393.401064 13.069831 L 364.651062 13.069831 C 360.703145 13.069831 357.46877 16.304206 357.46877 20.26254 L 357.46877 41.819833 C 357.46877 45.76775 360.703145 49.002125 364.651062 49.002125 L 393.401064 49.002125 L 393.401064 41.819833 L 364.651062 41.819833 L 364.651062 34.627124 L 393.401064 34.627124 L 393.401064 27.444832 L 364.651062 27.444832 L 364.651062 20.26254 L 393.401064 20.26254 Z M 393.401064 13.069831 " stroke="#005180" stroke-width="1.965171" stroke-opacity="1" stroke-miterlimit="4"/><g fill="#38b6ff" fill-opacity="1"><g transform="translate(41.097659, 255.599969)"><g><path d="M 28.292969 -26.945312 L 22.902344 -26.945312 L 22.902344 -24.25 L 14.820312 -16.167969 L 6.738281 -24.25 L 6.738281 -26.945312 L 1.347656 -26.945312 L 1.347656 -23.171875 C 1.347656 -22.433594 1.582031 -21.792969 2.15625 -21.21875 L 9.902344 -13.472656 L 2.15625 -5.726562 C 1.617188 -5.1875 1.347656 -4.511719 1.347656 -3.773438 L 1.347656 0 L 6.738281 0 L 6.738281 -2.695312 L 14.820312 -10.777344 L 22.902344 -2.695312 L 22.902344 0 L 28.292969 0 L 28.292969 -3.773438 C 28.292969 -4.511719 28.023438 -5.1875 27.484375 -5.726562 L 19.738281 -13.472656 L 27.484375 -21.21875 C 28.058594 -21.792969 28.292969 -22.433594 28.292969 -23.171875 Z M 28.292969 -26.945312 "/></g></g></g><g fill="#38b6ff" fill-opacity="1"><g transform="translate(70.735715, 255.599969)"><g><path d="M 13.472656 -10.777344 L 13.472656 -16.167969 L 1.347656 -16.167969 L 1.347656 -10.777344 Z M 13.472656 -10.777344 "/></g></g></g><g fill="#38b6ff" fill-opacity="1"><g transform="translate(85.554737, 255.599969)"><g/></g></g><g fill="#38b6ff" fill-opacity="1"><g transform="translate(100.37376, 255.599969)"><g><path d="M 22.902344 -16.167969 L 6.738281 -16.167969 L 6.738281 -26.945312 L 1.347656 -26.945312 L 1.347656 0 L 6.738281 0 L 6.738281 -10.777344 L 22.902344 -10.777344 L 22.902344 0 L 28.292969 0 L 28.292969 -26.945312 L 22.902344 -26.945312 Z M 22.902344 -16.167969 "/></g></g></g><g fill="#38b6ff" fill-opacity="1"><g transform="translate(130.011815, 255.599969)"><g><path d="M 22.902344 -16.167969 L 6.738281 -16.167969 L 6.738281 -26.945312 L 1.347656 -26.945312 L 1.347656 -16.167969 C 1.347656 -13.203125 3.773438 -10.777344 6.738281 -10.777344 L 22.902344 -10.777344 L 22.902344 0 L 28.292969 0 L 28.292969 -26.945312 L 22.902344 -26.945312 Z M 22.902344 -16.167969 "/></g></g></g><g fill="#38b6ff" fill-opacity="1"><g transform="translate(159.649871, 255.599969)"><g><path d="M 28.292969 -21.558594 C 28.292969 -24.519531 25.867188 -26.945312 22.902344 -26.945312 L 1.347656 -26.945312 L 1.347656 0 L 6.738281 0 L 6.738281 -10.777344 L 9.902344 -10.777344 L 19.871094 -0.808594 C 20.410156 -0.269531 21.085938 0 21.828125 0 L 28.292969 0 L 28.292969 -5.390625 L 22.902344 -5.390625 L 17.515625 -10.777344 L 22.902344 -10.777344 C 25.867188 -10.777344 28.292969 -13.203125 28.292969 -16.167969 Z M 22.902344 -21.558594 L 22.902344 -16.167969 L 6.738281 -16.167969 L 6.738281 -21.558594 Z M 22.902344 -21.558594 "/></g></g></g><g fill="#38b6ff" fill-opacity="1"><g transform="translate(189.287926, 255.599969)"><g><path d="M 22.902344 0 C 25.867188 0 28.292969 -2.425781 28.292969 -5.390625 L 28.292969 -21.558594 C 28.292969 -24.519531 25.867188 -26.945312 22.902344 -26.945312 L 1.347656 -26.945312 L 1.347656 0 Z M 6.738281 -21.558594 L 22.902344 -21.558594 L 22.902344 -5.390625 L 6.738281 -5.390625 Z M 6.738281 -21.558594 "/></g></g></g><g fill="#38b6ff" fill-opacity="1"><g transform="translate(218.925982, 255.599969)"><g><path d="M 22.902344 -5.390625 L 17.515625 -5.390625 L 17.515625 -26.945312 L 12.125 -26.945312 L 12.125 -5.390625 L 6.738281 -5.390625 L 6.738281 -26.945312 L 1.347656 -26.945312 L 1.347656 -5.390625 C 1.347656 -2.425781 3.773438 0 6.738281 0 L 22.902344 0 C 25.867188 0 28.292969 -2.425781 28.292969 -5.390625 L 28.292969 -26.945312 L 22.902344 -26.945312 Z M 22.902344 -5.390625 "/></g></g></g><g fill="#38b6ff" fill-opacity="1"><g transform="translate(248.564037, 255.599969)"><g><path d="M 6.738281 -26.945312 C 3.773438 -26.945312 1.347656 -24.519531 1.347656 -21.558594 L 1.347656 0 L 6.738281 0 L 6.738281 -10.777344 L 22.902344 -10.777344 L 22.902344 0 L 28.292969 0 L 28.292969 -21.558594 C 28.292969 -24.519531 25.867188 -26.945312 22.902344 -26.945312 Z M 6.738281 -21.558594 L 22.902344 -21.558594 L 22.902344 -16.167969 L 6.738281 -16.167969 Z M 6.738281 -21.558594 "/></g></g></g><g fill="#38b6ff" fill-opacity="1"><g transform="translate(278.202105, 255.599969)"><g><path d="M 28.292969 -21.558594 C 28.292969 -24.519531 25.867188 -26.945312 22.902344 -26.945312 L 1.347656 -26.945312 L 1.347656 0 L 6.738281 0 L 6.738281 -10.777344 L 9.902344 -10.777344 L 19.871094 -0.808594 C 20.410156 -0.269531 21.085938 0 21.828125 0 L 28.292969 0 L 28.292969 -5.390625 L 22.902344 -5.390625 L 17.515625 -10.777344 L 22.902344 -10.777344 C 25.867188 -10.777344 28.292969 -13.203125 28.292969 -16.167969 Z M 22.902344 -21.558594 L 22.902344 -16.167969 L 6.738281 -16.167969 L 6.738281 -21.558594 Z M 22.902344 -21.558594 "/></g></g></g><g fill="#38b6ff" fill-opacity="1"><g transform="translate(307.840149, 255.599969)"><g><path d="M 28.292969 -26.945312 L 6.738281 -26.945312 C 3.773438 -26.945312 1.347656 -24.519531 1.347656 -21.558594 L 1.347656 -5.390625 C 1.347656 -2.425781 3.773438 0 6.738281 0 L 28.292969 0 L 28.292969 -5.390625 L 6.738281 -5.390625 L 6.738281 -10.777344 L 28.292969 -10.777344 L 28.292969 -16.167969 L 6.738281 -16.167969 L 6.738281 -21.558594 L 28.292969 -21.558594 Z M 28.292969 -26.945312 "/></g></g></g><g fill="#a6a6a6" fill-opacity="0.4"><g transform="translate(99.858514, 290.044375)"><g><path d="M 16.519531 -15.730469 L 0.785156 -15.730469 L 0.785156 -12.585938 L 7.078125 -12.585938 L 7.078125 0 L 10.226562 0 L 10.226562 -12.585938 L 16.519531 -12.585938 Z M 16.519531 -15.730469 "/></g></g></g><g fill="#a6a6a6" fill-opacity="0.4"><g transform="translate(120.270346, 290.044375)"><g><path d="M 16.519531 -15.730469 L 3.933594 -15.730469 C 2.203125 -15.730469 0.785156 -14.316406 0.785156 -12.585938 L 0.785156 -3.144531 C 0.785156 -1.414062 2.203125 0 3.933594 0 L 16.519531 0 L 16.519531 -3.144531 L 3.933594 -3.144531 L 3.933594 -6.292969 L 16.519531 -6.292969 L 16.519531 -9.4375 L 3.933594 -9.4375 L 3.933594 -12.585938 L 16.519531 -12.585938 Z M 16.519531 -15.730469 "/></g></g></g><g fill="#a6a6a6" fill-opacity="0.4"><g transform="translate(140.682178, 290.044375)"><g><path d="M 16.519531 0 L 16.519531 -3.144531 L 3.933594 -3.144531 L 3.933594 -12.585938 L 16.519531 -12.585938 L 16.519531 -15.730469 L 3.933594 -15.730469 C 2.203125 -15.730469 0.785156 -14.316406 0.785156 -12.585938 L 0.785156 -3.144531 C 0.785156 -1.414062 2.203125 0 3.933594 0 Z M 16.519531 0 "/></g></g></g><g fill="#a6a6a6" fill-opacity="0.4"><g transform="translate(161.094013, 290.044375)"><g><path d="M 3.933594 0 L 3.933594 -10.363281 L 13.824219 -0.472656 C 14.121094 -0.175781 14.511719 0 14.945312 0 C 15.8125 0 16.519531 -0.707031 16.519531 -1.574219 L 16.519531 -15.730469 L 13.371094 -15.730469 L 13.371094 -5.367188 L 3.480469 -15.261719 C 3.1875 -15.554688 2.792969 -15.730469 2.359375 -15.730469 C 1.496094 -15.730469 0.785156 -15.023438 0.785156 -14.160156 L 0.785156 0 Z M 3.933594 0 "/></g></g></g><g fill="#a6a6a6" fill-opacity="0.4"><g transform="translate(181.505843, 290.044375)"><g><path d="M 13.371094 0 C 15.121094 0 16.519531 -1.433594 16.519531 -3.144531 L 16.519531 -12.585938 C 16.519531 -14.316406 15.101562 -15.730469 13.371094 -15.730469 L 3.933594 -15.730469 C 2.203125 -15.730469 0.785156 -14.316406 0.785156 -12.585938 L 0.785156 -3.144531 C 0.785156 -1.414062 2.203125 0 3.933594 0 Z M 3.933594 -12.585938 L 13.371094 -12.585938 L 13.371094 -3.144531 L 3.933594 -3.144531 Z M 3.933594 -12.585938 "/></g></g></g><g fill="#a6a6a6" fill-opacity="0.4"><g transform="translate(201.917673, 290.044375)"><g><path d="M 16.519531 0 L 16.519531 -3.144531 L 3.933594 -3.144531 L 3.933594 -15.730469 L 0.785156 -15.730469 L 0.785156 -3.144531 C 0.785156 -1.414062 2.203125 0 3.933594 0 Z M 16.519531 0 "/></g></g></g><g fill="#a6a6a6" fill-opacity="0.4"><g transform="translate(222.329503, 290.044375)"><g><path d="M 13.371094 0 C 15.121094 0 16.519531 -1.433594 16.519531 -3.144531 L 16.519531 -12.585938 C 16.519531 -14.316406 15.101562 -15.730469 13.371094 -15.730469 L 3.933594 -15.730469 C 2.203125 -15.730469 0.785156 -14.316406 0.785156 -12.585938 L 0.785156 -3.144531 C 0.785156 -1.414062 2.203125 0 3.933594 0 Z M 3.933594 -12.585938 L 13.371094 -12.585938 L 13.371094 -3.144531 L 3.933594 -3.144531 Z M 3.933594 -12.585938 "/></g></g></g><g fill="#a6a6a6" fill-opacity="0.4"><g transform="translate(242.741333, 290.044375)"><g><path d="M 16.519531 -15.730469 L 3.933594 -15.730469 C 2.203125 -15.730469 0.785156 -14.316406 0.785156 -12.585938 L 0.785156 -3.144531 C 0.785156 -1.414062 2.203125 0 3.933594 0 L 13.371094 0 C 15.121094 0 16.519531 -1.433594 16.519531 -3.144531 L 16.519531 -9.4375 L 7.078125 -9.4375 L 7.078125 -6.292969 L 13.371094 -6.292969 L 13.371094 -3.144531 L 3.933594 -3.144531 L 3.933594 -12.585938 L 16.519531 -12.585938 Z M 16.519531 -15.730469 "/></g></g></g><g fill="#a6a6a6" fill-opacity="0.4"><g transform="translate(263.153163, 290.044375)"><g><path d="M 13.371094 -9.4375 L 3.933594 -9.4375 L 3.933594 -15.730469 L 0.785156 -15.730469 L 0.785156 -9.4375 C 0.785156 -7.707031 2.203125 -6.292969 3.933594 -6.292969 L 13.371094 -6.292969 L 13.371094 -3.144531 L 0.785156 -3.144531 L 0.785156 0 L 13.371094 0 C 15.101562 0 16.519531 -1.414062 16.519531 -3.144531 L 16.519531 -15.730469 L 13.371094 -15.730469 Z M 13.371094 -9.4375 "/></g></g></g><g fill="#ffffff" fill-opacity="1"><g transform="translate(98.989311, 289.175167)"><g><path d="M 16.519531 -15.730469 L 0.785156 -15.730469 L 0.785156 -12.585938 L 7.078125 -12.585938 L 7.078125 0 L 10.226562 0 L 10.226562 -12.585938 L 16.519531 -12.585938 Z M 16.519531 -15.730469 "/></g></g></g><g fill="#ffffff" fill-opacity="1"><g transform="translate(119.401143, 289.175167)"><g><path d="M 16.519531 -15.730469 L 3.933594 -15.730469 C 2.203125 -15.730469 0.785156 -14.316406 0.785156 -12.585938 L 0.785156 -3.144531 C 0.785156 -1.414062 2.203125 0 3.933594 0 L 16.519531 0 L 16.519531 -3.144531 L 3.933594 -3.144531 L 3.933594 -6.292969 L 16.519531 -6.292969 L 16.519531 -9.4375 L 3.933594 -9.4375 L 3.933594 -12.585938 L 16.519531 -12.585938 Z M 16.519531 -15.730469 "/></g></g></g><g fill="#ffffff" fill-opacity="1"><g transform="translate(139.812975, 289.175167)"><g><path d="M 16.519531 0 L 16.519531 -3.144531 L 3.933594 -3.144531 L 3.933594 -12.585938 L 16.519531 -12.585938 L 16.519531 -15.730469 L 3.933594 -15.730469 C 2.203125 -15.730469 0.785156 -14.316406 0.785156 -12.585938 L 0.785156 -3.144531 C 0.785156 -1.414062 2.203125 0 3.933594 0 Z M 16.519531 0 "/></g></g></g><g fill="#ffffff" fill-opacity="1"><g transform="translate(160.22481, 289.175167)"><g><path d="M 3.933594 0 L 3.933594 -10.363281 L 13.824219 -0.472656 C 14.121094 -0.175781 14.511719 0 14.945312 0 C 15.8125 0 16.519531 -0.707031 16.519531 -1.574219 L 16.519531 -15.730469 L 13.371094 -15.730469 L 13.371094 -5.367188 L 3.480469 -15.261719 C 3.1875 -15.554688 2.792969 -15.730469 2.359375 -15.730469 C 1.496094 -15.730469 0.785156 -15.023438 0.785156 -14.160156 L 0.785156 0 Z M 3.933594 0 "/></g></g></g><g fill="#ffffff" fill-opacity="1"><g transform="translate(180.63664, 289.175167)"><g><path d="M 13.371094 0 C 15.121094 0 16.519531 -1.433594 16.519531 -3.144531 L 16.519531 -12.585938 C 16.519531 -14.316406 15.101562 -15.730469 13.371094 -15.730469 L 3.933594 -15.730469 C 2.203125 -15.730469 0.785156 -14.316406 0.785156 -12.585938 L 0.785156 -3.144531 C 0.785156 -1.414062 2.203125 0 3.933594 0 Z M 3.933594 -12.585938 L 13.371094 -12.585938 L 13.371094 -3.144531 L 3.933594 -3.144531 Z M 3.933594 -12.585938 "/></g></g></g><g fill="#ffffff" fill-opacity="1"><g transform="translate(201.04847, 289.175167)"><g><path d="M 16.519531 0 L 16.519531 -3.144531 L 3.933594 -3.144531 L 3.933594 -15.730469 L 0.785156 -15.730469 L 0.785156 -3.144531 C 0.785156 -1.414062 2.203125 0 3.933594 0 Z M 16.519531 0 "/></g></g></g><g fill="#ffffff" fill-opacity="1"><g transform="translate(221.4603, 289.175167)"><g><path d="M 13.371094 0 C 15.121094 0 16.519531 -1.433594 16.519531 -3.144531 L 16.519531 -12.585938 C 16.519531 -14.316406 15.101562 -15.730469 13.371094 -15.730469 L 3.933594 -15.730469 C 2.203125 -15.730469 0.785156 -14.316406 0.785156 -12.585938 L 0.785156 -3.144531 C 0.785156 -1.414062 2.203125 0 3.933594 0 Z M 3.933594 -12.585938 L 13.371094 -12.585938 L 13.371094 -3.144531 L 3.933594 -3.144531 Z M 3.933594 -12.585938 "/></g></g></g><g fill="#ffffff" fill-opacity="1"><g transform="translate(241.87213, 289.175167)"><g><path d="M 16.519531 -15.730469 L 3.933594 -15.730469 C 2.203125 -15.730469 0.785156 -14.316406 0.785156 -12.585938 L 0.785156 -3.144531 C 0.785156 -1.414062 2.203125 0 3.933594 0 L 13.371094 0 C 15.121094 0 16.519531 -1.433594 16.519531 -3.144531 L 16.519531 -9.4375 L 7.078125 -9.4375 L 7.078125 -6.292969 L 13.371094 -6.292969 L 13.371094 -3.144531 L 3.933594 -3.144531 L 3.933594 -12.585938 L 16.519531 -12.585938 Z M 16.519531 -15.730469 "/></g></g></g><g fill="#ffffff" fill-opacity="1"><g transform="translate(262.28396, 289.175167)"><g><path d="M 13.371094 -9.4375 L 3.933594 -9.4375 L 3.933594 -15.730469 L 0.785156 -15.730469 L 0.785156 -9.4375 C 0.785156 -7.707031 2.203125 -6.292969 3.933594 -6.292969 L 13.371094 -6.292969 L 13.371094 -3.144531 L 0.785156 -3.144531 L 0.785156 0 L 13.371094 0 C 15.101562 0 16.519531 -1.414062 16.519531 -3.144531 L 16.519531 -15.730469 L 13.371094 -15.730469 Z M 13.371094 -9.4375 "/></g></g></g></svg>