<svg xmlns="http://www.w3.org/2000/svg" xmlns:xlink="http://www.w3.org/1999/xlink" width="500" zoomAndPan="magnify" viewBox="0 0 375 374.999991" height="500" preserveAspectRatio="xMidYMid meet" version="1.0"><defs><g/></defs><path stroke-linecap="butt" transform="matrix(0.75, 0, 0, 0.75, 41.08594, 138.224977)" fill="none" stroke-linejoin="miter" d="M 37.744791 13.069824 L 30.552082 13.069824 L 30.552082 16.663574 L 19.770831 27.444825 L 8.994789 16.663574 L 8.994789 13.069824 L 1.812497 13.069824 L 1.812497 18.101074 C 1.812497 19.090658 2.130205 19.944824 2.890622 20.710449 L 13.218747 31.038575 L 2.890622 41.366701 C 2.17708 42.080242 1.812497 42.981284 1.812497 43.965659 L 1.812497 49.002118 L 8.994789 49.002118 L 8.994789 45.403159 L 19.770831 34.627117 L 30.552082 45.403159 L 30.552082 49.002118 L 37.744791 49.002118 L 37.744791 43.965659 C 37.744791 42.981284 37.380207 42.080242 36.656249 41.366701 L 26.328123 31.038575 L 36.656249 20.710449 C 37.427082 19.944824 37.744791 19.090658 37.744791 18.101074 Z M 57.494792 34.627117 L 57.494792 27.444825 L 41.333332 27.444825 L 41.333332 34.627117 Z M 109.588545 27.444825 L 88.031252 27.444825 L 88.031252 13.069824 L 80.84896 13.069824 L 80.84896 49.002118 L 88.031252 49.002118 L 88.031252 34.627117 L 109.588545 34.627117 L 109.588545 49.002118 L 116.781254 49.002118 L 116.781254 13.069824 L 109.588545 13.069824 Z M 149.104173 27.444825 L 127.54688 27.444825 L 127.54688 13.069824 L 120.364588 13.069824 L 120.364588 27.444825 C 120.364588 31.392742 123.598963 34.627117 127.54688 34.627117 L 149.104173 34.627117 L 149.104173 49.002118 L 156.296882 49.002118 L 156.296882 13.069824 L 149.104173 13.069824 Z M 195.812509 20.262533 C 195.812509 16.304199 192.578134 13.069824 188.6198 13.069824 L 159.885424 13.069824 L 159.885424 49.002118 L 167.062507 49.002118 L 167.062507 34.627117 L 171.286466 34.627117 L 184.58855 47.923993 C 185.296884 48.637534 186.197925 49.002118 187.1823 49.002118 L 195.812509 49.002118 L 195.812509 41.819826 L 188.6198 41.819826 L 181.437508 34.627117 L 188.6198 34.627117 C 192.578134 34.627117 195.812509 31.392742 195.812509 27.444825 Z M 188.6198 20.262533 L 188.6198 27.444825 L 167.062507 27.444825 L 167.062507 20.262533 Z M 228.140636 49.002118 C 232.09897 49.002118 235.333345 45.767743 235.333345 41.819826 L 235.333345 20.262533 C 235.333345 16.304199 232.09897 13.069824 228.140636 13.069824 L 199.401051 13.069824 L 199.401051 49.002118 Z M 206.583343 20.262533 L 228.140636 20.262533 L 228.140636 41.819826 L 206.583343 41.819826 Z M 267.656264 41.819826 L 260.473972 41.819826 L 260.473972 13.069824 L 253.29168 13.069824 L 253.29168 41.819826 L 246.098971 41.819826 L 246.098971 13.069824 L 238.916679 13.069824 L 238.916679 41.819826 C 238.916679 45.767743 242.151054 49.002118 246.098971 49.002118 L 267.656264 49.002118 C 271.614598 49.002118 274.848973 45.767743 274.848973 41.819826 L 274.848973 13.069824 L 267.656264 13.069824 Z M 285.619807 13.069824 C 281.67189 13.069824 278.437515 16.304199 278.437515 20.262533 L 278.437515 49.002118 L 285.619807 49.002118 L 285.619807 34.627117 L 307.171892 34.627117 L 307.171892 49.002118 L 314.3646 49.002118 L 314.3646 20.262533 C 314.3646 16.304199 311.130225 13.069824 307.171892 13.069824 Z M 285.619807 20.262533 L 307.171892 20.262533 L 307.171892 27.444825 L 285.619807 27.444825 Z M 353.885436 20.262533 C 353.885436 16.304199 350.651061 13.069824 346.692727 13.069824 L 317.953142 13.069824 L 317.953142 49.002118 L 325.135434 49.002118 L 325.135434 34.627117 L 329.354185 34.627117 L 342.656269 47.923993 C 343.369811 48.637534 344.265644 49.002118 345.255227 49.002118 L 353.885436 49.002118 L 353.885436 41.819826 L 346.692727 41.819826 L 339.510435 34.627117 L 346.692727 34.627117 C 350.651061 34.627117 353.885436 31.392742 353.885436 27.444825 Z M 346.692727 20.262533 L 346.692727 27.444825 L 325.135434 27.444825 L 325.135434 20.262533 Z M 393.401064 13.069824 L 364.651062 13.069824 C 360.703145 13.069824 357.46877 16.304199 357.46877 20.262533 L 357.46877 41.819826 C 357.46877 45.767743 360.703145 49.002118 364.651062 49.002118 L 393.401064 49.002118 L 393.401064 41.819826 L 364.651062 41.819826 L 364.651062 34.627117 L 393.401064 34.627117 L 393.401064 27.444825 L 364.651062 27.444825 L 364.651062 20.262533 L 393.401064 20.262533 Z M 393.401064 13.069824 " stroke="#005180" stroke-width="1.965171" stroke-opacity="1" stroke-miterlimit="4"/><g fill="#38b6ff" fill-opacity="1"><g transform="translate(41.097659, 174.974974)"><g><path d="M 28.292969 -26.945312 L 22.902344 -26.945312 L 22.902344 -24.25 L 14.820312 -16.167969 L 6.738281 -24.25 L 6.738281 -26.945312 L 1.347656 -26.945312 L 1.347656 -23.171875 C 1.347656 -22.433594 1.582031 -21.792969 2.15625 -21.21875 L 9.902344 -13.472656 L 2.15625 -5.726562 C 1.617188 -5.1875 1.347656 -4.511719 1.347656 -3.773438 L 1.347656 0 L 6.738281 0 L 6.738281 -2.695312 L 14.820312 -10.777344 L 22.902344 -2.695312 L 22.902344 0 L 28.292969 0 L 28.292969 -3.773438 C 28.292969 -4.511719 28.023438 -5.1875 27.484375 -5.726562 L 19.738281 -13.472656 L 27.484375 -21.21875 C 28.058594 -21.792969 28.292969 -22.433594 28.292969 -23.171875 Z M 28.292969 -26.945312 "/></g></g></g><g fill="#38b6ff" fill-opacity="1"><g transform="translate(70.735715, 174.974974)"><g><path d="M 13.472656 -10.777344 L 13.472656 -16.167969 L 1.347656 -16.167969 L 1.347656 -10.777344 Z M 13.472656 -10.777344 "/></g></g></g><g fill="#38b6ff" fill-opacity="1"><g transform="translate(85.554737, 174.974974)"><g/></g></g><g fill="#38b6ff" fill-opacity="1"><g transform="translate(100.37376, 174.974974)"><g><path d="M 22.902344 -16.167969 L 6.738281 -16.167969 L 6.738281 -26.945312 L 1.347656 -26.945312 L 1.347656 0 L 6.738281 0 L 6.738281 -10.777344 L 22.902344 -10.777344 L 22.902344 0 L 28.292969 0 L 28.292969 -26.945312 L 22.902344 -26.945312 Z M 22.902344 -16.167969 "/></g></g></g><g fill="#38b6ff" fill-opacity="1"><g transform="translate(130.011815, 174.974974)"><g><path d="M 22.902344 -16.167969 L 6.738281 -16.167969 L 6.738281 -26.945312 L 1.347656 -26.945312 L 1.347656 -16.167969 C 1.347656 -13.203125 3.773438 -10.777344 6.738281 -10.777344 L 22.902344 -10.777344 L 22.902344 0 L 28.292969 0 L 28.292969 -26.945312 L 22.902344 -26.945312 Z M 22.902344 -16.167969 "/></g></g></g><g fill="#38b6ff" fill-opacity="1"><g transform="translate(159.649871, 174.974974)"><g><path d="M 28.292969 -21.558594 C 28.292969 -24.519531 25.867188 -26.945312 22.902344 -26.945312 L 1.347656 -26.945312 L 1.347656 0 L 6.738281 0 L 6.738281 -10.777344 L 9.902344 -10.777344 L 19.871094 -0.808594 C 20.410156 -0.269531 21.085938 0 21.828125 0 L 28.292969 0 L 28.292969 -5.390625 L 22.902344 -5.390625 L 17.515625 -10.777344 L 22.902344 -10.777344 C 25.867188 -10.777344 28.292969 -13.203125 28.292969 -16.167969 Z M 22.902344 -21.558594 L 22.902344 -16.167969 L 6.738281 -16.167969 L 6.738281 -21.558594 Z M 22.902344 -21.558594 "/></g></g></g><g fill="#38b6ff" fill-opacity="1"><g transform="translate(189.287926, 174.974974)"><g><path d="M 22.902344 0 C 25.867188 0 28.292969 -2.425781 28.292969 -5.390625 L 28.292969 -21.558594 C 28.292969 -24.519531 25.867188 -26.945312 22.902344 -26.945312 L 1.347656 -26.945312 L 1.347656 0 Z M 6.738281 -21.558594 L 22.902344 -21.558594 L 22.902344 -5.390625 L 6.738281 -5.390625 Z M 6.738281 -21.558594 "/></g></g></g><g fill="#38b6ff" fill-opacity="1"><g transform="translate(218.925982, 174.974974)"><g><path d="M 22.902344 -5.390625 L 17.515625 -5.390625 L 17.515625 -26.945312 L 12.125 -26.945312 L 12.125 -5.390625 L 6.738281 -5.390625 L 6.738281 -26.945312 L 1.347656 -26.945312 L 1.347656 -5.390625 C 1.347656 -2.425781 3.773438 0 6.738281 0 L 22.902344 0 C 25.867188 0 28.292969 -2.425781 28.292969 -5.390625 L 28.292969 -26.945312 L 22.902344 -26.945312 Z M 22.902344 -5.390625 "/></g></g></g><g fill="#38b6ff" fill-opacity="1"><g transform="translate(248.564037, 174.974974)"><g><path d="M 6.738281 -26.945312 C 3.773438 -26.945312 1.347656 -24.519531 1.347656 -21.558594 L 1.347656 0 L 6.738281 0 L 6.738281 -10.777344 L 22.902344 -10.777344 L 22.902344 0 L 28.292969 0 L 28.292969 -21.558594 C 28.292969 -24.519531 25.867188 -26.945312 22.902344 -26.945312 Z M 6.738281 -21.558594 L 22.902344 -21.558594 L 22.902344 -16.167969 L 6.738281 -16.167969 Z M 6.738281 -21.558594 "/></g></g></g><g fill="#38b6ff" fill-opacity="1"><g transform="translate(278.202105, 174.974974)"><g><path d="M 28.292969 -21.558594 C 28.292969 -24.519531 25.867188 -26.945312 22.902344 -26.945312 L 1.347656 -26.945312 L 1.347656 0 L 6.738281 0 L 6.738281 -10.777344 L 9.902344 -10.777344 L 19.871094 -0.808594 C 20.410156 -0.269531 21.085938 0 21.828125 0 L 28.292969 0 L 28.292969 -5.390625 L 22.902344 -5.390625 L 17.515625 -10.777344 L 22.902344 -10.777344 C 25.867188 -10.777344 28.292969 -13.203125 28.292969 -16.167969 Z M 22.902344 -21.558594 L 22.902344 -16.167969 L 6.738281 -16.167969 L 6.738281 -21.558594 Z M 22.902344 -21.558594 "/></g></g></g><g fill="#38b6ff" fill-opacity="1"><g transform="translate(307.840149, 174.974974)"><g><path d="M 28.292969 -26.945312 L 6.738281 -26.945312 C 3.773438 -26.945312 1.347656 -24.519531 1.347656 -21.558594 L 1.347656 -5.390625 C 1.347656 -2.425781 3.773438 0 6.738281 0 L 28.292969 0 L 28.292969 -5.390625 L 6.738281 -5.390625 L 6.738281 -10.777344 L 28.292969 -10.777344 L 28.292969 -16.167969 L 6.738281 -16.167969 L 6.738281 -21.558594 L 28.292969 -21.558594 Z M 28.292969 -26.945312 "/></g></g></g><g fill="#a6a6a6" fill-opacity="0.4"><g transform="translate(99.858514, 200.692105)"><g><path d="M 16.519531 -15.730469 L 0.785156 -15.730469 L 0.785156 -12.585938 L 7.078125 -12.585938 L 7.078125 0 L 10.226562 0 L 10.226562 -12.585938 L 16.519531 -12.585938 Z M 16.519531 -15.730469 "/></g></g></g><g fill="#a6a6a6" fill-opacity="0.4"><g transform="translate(120.270346, 200.692105)"><g><path d="M 16.519531 -15.730469 L 3.933594 -15.730469 C 2.203125 -15.730469 0.785156 -14.316406 0.785156 -12.585938 L 0.785156 -3.144531 C 0.785156 -1.414062 2.203125 0 3.933594 0 L 16.519531 0 L 16.519531 -3.144531 L 3.933594 -3.144531 L 3.933594 -6.292969 L 16.519531 -6.292969 L 16.519531 -9.4375 L 3.933594 -9.4375 L 3.933594 -12.585938 L 16.519531 -12.585938 Z M 16.519531 -15.730469 "/></g></g></g><g fill="#a6a6a6" fill-opacity="0.4"><g transform="translate(140.682178, 200.692105)"><g><path d="M 16.519531 0 L 16.519531 -3.144531 L 3.933594 -3.144531 L 3.933594 -12.585938 L 16.519531 -12.585938 L 16.519531 -15.730469 L 3.933594 -15.730469 C 2.203125 -15.730469 0.785156 -14.316406 0.785156 -12.585938 L 0.785156 -3.144531 C 0.785156 -1.414062 2.203125 0 3.933594 0 Z M 16.519531 0 "/></g></g></g><g fill="#a6a6a6" fill-opacity="0.4"><g transform="translate(161.094013, 200.692105)"><g><path d="M 3.933594 0 L 3.933594 -10.363281 L 13.824219 -0.472656 C 14.121094 -0.175781 14.511719 0 14.945312 0 C 15.8125 0 16.519531 -0.707031 16.519531 -1.574219 L 16.519531 -15.730469 L 13.371094 -15.730469 L 13.371094 -5.367188 L 3.480469 -15.261719 C 3.1875 -15.554688 2.792969 -15.730469 2.359375 -15.730469 C 1.496094 -15.730469 0.785156 -15.023438 0.785156 -14.160156 L 0.785156 0 Z M 3.933594 0 "/></g></g></g><g fill="#a6a6a6" fill-opacity="0.4"><g transform="translate(181.505843, 200.692105)"><g><path d="M 13.371094 0 C 15.121094 0 16.519531 -1.433594 16.519531 -3.144531 L 16.519531 -12.585938 C 16.519531 -14.316406 15.101562 -15.730469 13.371094 -15.730469 L 3.933594 -15.730469 C 2.203125 -15.730469 0.785156 -14.316406 0.785156 -12.585938 L 0.785156 -3.144531 C 0.785156 -1.414062 2.203125 0 3.933594 0 Z M 3.933594 -12.585938 L 13.371094 -12.585938 L 13.371094 -3.144531 L 3.933594 -3.144531 Z M 3.933594 -12.585938 "/></g></g></g><g fill="#a6a6a6" fill-opacity="0.4"><g transform="translate(201.917673, 200.692105)"><g><path d="M 16.519531 0 L 16.519531 -3.144531 L 3.933594 -3.144531 L 3.933594 -15.730469 L 0.785156 -15.730469 L 0.785156 -3.144531 C 0.785156 -1.414062 2.203125 0 3.933594 0 Z M 16.519531 0 "/></g></g></g><g fill="#a6a6a6" fill-opacity="0.4"><g transform="translate(222.329503, 200.692105)"><g><path d="M 13.371094 0 C 15.121094 0 16.519531 -1.433594 16.519531 -3.144531 L 16.519531 -12.585938 C 16.519531 -14.316406 15.101562 -15.730469 13.371094 -15.730469 L 3.933594 -15.730469 C 2.203125 -15.730469 0.785156 -14.316406 0.785156 -12.585938 L 0.785156 -3.144531 C 0.785156 -1.414062 2.203125 0 3.933594 0 Z M 3.933594 -12.585938 L 13.371094 -12.585938 L 13.371094 -3.144531 L 3.933594 -3.144531 Z M 3.933594 -12.585938 "/></g></g></g><g fill="#a6a6a6" fill-opacity="0.4"><g transform="translate(242.741333, 200.692105)"><g><path d="M 16.519531 -15.730469 L 3.933594 -15.730469 C 2.203125 -15.730469 0.785156 -14.316406 0.785156 -12.585938 L 0.785156 -3.144531 C 0.785156 -1.414062 2.203125 0 3.933594 0 L 13.371094 0 C 15.121094 0 16.519531 -1.433594 16.519531 -3.144531 L 16.519531 -9.4375 L 7.078125 -9.4375 L 7.078125 -6.292969 L 13.371094 -6.292969 L 13.371094 -3.144531 L 3.933594 -3.144531 L 3.933594 -12.585938 L 16.519531 -12.585938 Z M 16.519531 -15.730469 "/></g></g></g><g fill="#a6a6a6" fill-opacity="0.4"><g transform="translate(263.153163, 200.692105)"><g><path d="M 13.371094 -9.4375 L 3.933594 -9.4375 L 3.933594 -15.730469 L 0.785156 -15.730469 L 0.785156 -9.4375 C 0.785156 -7.707031 2.203125 -6.292969 3.933594 -6.292969 L 13.371094 -6.292969 L 13.371094 -3.144531 L 0.785156 -3.144531 L 0.785156 0 L 13.371094 0 C 15.101562 0 16.519531 -1.414062 16.519531 -3.144531 L 16.519531 -15.730469 L 13.371094 -15.730469 Z M 13.371094 -9.4375 "/></g></g></g><g fill="#ffffff" fill-opacity="1"><g transform="translate(98.989311, 199.822897)"><g><path d="M 16.519531 -15.730469 L 0.785156 -15.730469 L 0.785156 -12.585938 L 7.078125 -12.585938 L 7.078125 0 L 10.226562 0 L 10.226562 -12.585938 L 16.519531 -12.585938 Z M 16.519531 -15.730469 "/></g></g></g><g fill="#ffffff" fill-opacity="1"><g transform="translate(119.401143, 199.822897)"><g><path d="M 16.519531 -15.730469 L 3.933594 -15.730469 C 2.203125 -15.730469 0.785156 -14.316406 0.785156 -12.585938 L 0.785156 -3.144531 C 0.785156 -1.414062 2.203125 0 3.933594 0 L 16.519531 0 L 16.519531 -3.144531 L 3.933594 -3.144531 L 3.933594 -6.292969 L 16.519531 -6.292969 L 16.519531 -9.4375 L 3.933594 -9.4375 L 3.933594 -12.585938 L 16.519531 -12.585938 Z M 16.519531 -15.730469 "/></g></g></g><g fill="#ffffff" fill-opacity="1"><g transform="translate(139.812975, 199.822897)"><g><path d="M 16.519531 0 L 16.519531 -3.144531 L 3.933594 -3.144531 L 3.933594 -12.585938 L 16.519531 -12.585938 L 16.519531 -15.730469 L 3.933594 -15.730469 C 2.203125 -15.730469 0.785156 -14.316406 0.785156 -12.585938 L 0.785156 -3.144531 C 0.785156 -1.414062 2.203125 0 3.933594 0 Z M 16.519531 0 "/></g></g></g><g fill="#ffffff" fill-opacity="1"><g transform="translate(160.22481, 199.822897)"><g><path d="M 3.933594 0 L 3.933594 -10.363281 L 13.824219 -0.472656 C 14.121094 -0.175781 14.511719 0 14.945312 0 C 15.8125 0 16.519531 -0.707031 16.519531 -1.574219 L 16.519531 -15.730469 L 13.371094 -15.730469 L 13.371094 -5.367188 L 3.480469 -15.261719 C 3.1875 -15.554688 2.792969 -15.730469 2.359375 -15.730469 C 1.496094 -15.730469 0.785156 -15.023438 0.785156 -14.160156 L 0.785156 0 Z M 3.933594 0 "/></g></g></g><g fill="#ffffff" fill-opacity="1"><g transform="translate(180.63664, 199.822897)"><g><path d="M 13.371094 0 C 15.121094 0 16.519531 -1.433594 16.519531 -3.144531 L 16.519531 -12.585938 C 16.519531 -14.316406 15.101562 -15.730469 13.371094 -15.730469 L 3.933594 -15.730469 C 2.203125 -15.730469 0.785156 -14.316406 0.785156 -12.585938 L 0.785156 -3.144531 C 0.785156 -1.414062 2.203125 0 3.933594 0 Z M 3.933594 -12.585938 L 13.371094 -12.585938 L 13.371094 -3.144531 L 3.933594 -3.144531 Z M 3.933594 -12.585938 "/></g></g></g><g fill="#ffffff" fill-opacity="1"><g transform="translate(201.04847, 199.822897)"><g><path d="M 16.519531 0 L 16.519531 -3.144531 L 3.933594 -3.144531 L 3.933594 -15.730469 L 0.785156 -15.730469 L 0.785156 -3.144531 C 0.785156 -1.414062 2.203125 0 3.933594 0 Z M 16.519531 0 "/></g></g></g><g fill="#ffffff" fill-opacity="1"><g transform="translate(221.4603, 199.822897)"><g><path d="M 13.371094 0 C 15.121094 0 16.519531 -1.433594 16.519531 -3.144531 L 16.519531 -12.585938 C 16.519531 -14.316406 15.101562 -15.730469 13.371094 -15.730469 L 3.933594 -15.730469 C 2.203125 -15.730469 0.785156 -14.316406 0.785156 -12.585938 L 0.785156 -3.144531 C 0.785156 -1.414062 2.203125 0 3.933594 0 Z M 3.933594 -12.585938 L 13.371094 -12.585938 L 13.371094 -3.144531 L 3.933594 -3.144531 Z M 3.933594 -12.585938 "/></g></g></g><g fill="#ffffff" fill-opacity="1"><g transform="translate(241.87213, 199.822897)"><g><path d="M 16.519531 -15.730469 L 3.933594 -15.730469 C 2.203125 -15.730469 0.785156 -14.316406 0.785156 -12.585938 L 0.785156 -3.144531 C 0.785156 -1.414062 2.203125 0 3.933594 0 L 13.371094 0 C 15.121094 0 16.519531 -1.433594 16.519531 -3.144531 L 16.519531 -9.4375 L 7.078125 -9.4375 L 7.078125 -6.292969 L 13.371094 -6.292969 L 13.371094 -3.144531 L 3.933594 -3.144531 L 3.933594 -12.585938 L 16.519531 -12.585938 Z M 16.519531 -15.730469 "/></g></g></g><g fill="#ffffff" fill-opacity="1"><g transform="translate(262.28396, 199.822897)"><g><path d="M 13.371094 -9.4375 L 3.933594 -9.4375 L 3.933594 -15.730469 L 0.785156 -15.730469 L 0.785156 -9.4375 C 0.785156 -7.707031 2.203125 -6.292969 3.933594 -6.292969 L 13.371094 -6.292969 L 13.371094 -3.144531 L 0.785156 -3.144531 L 0.785156 0 L 13.371094 0 C 15.101562 0 16.519531 -1.414062 16.519531 -3.144531 L 16.519531 -15.730469 L 13.371094 -15.730469 Z M 13.371094 -9.4375 "/></g></g></g></svg>