<svg xmlns="http://www.w3.org/2000/svg" xmlns:xlink="http://www.w3.org/1999/xlink" width="500" zoomAndPan="magnify" viewBox="0 0 375 374.999991" height="500" preserveAspectRatio="xMidYMid meet" version="1.0"><defs><g/><clipPath id="a4b68ca272"><path d="M 113 102.847656 L 261 102.847656 L 261 216 L 113 216 Z M 113 102.847656 " clip-rule="nonzero"/></clipPath><clipPath id="8ffcff5325"><path d="M 226.113281 128.925781 C 225.546875 128.925781 224.976562 128.953125 224.414062 129.007812 C 223.847656 129.066406 223.285156 129.148438 222.726562 129.261719 C 222.171875 129.371094 221.621094 129.507812 221.074219 129.675781 C 220.53125 129.839844 219.996094 130.03125 219.472656 130.25 C 218.945312 130.46875 218.433594 130.710938 217.933594 130.980469 C 217.429688 131.246094 216.945312 131.539062 216.472656 131.855469 C 216 132.171875 215.542969 132.511719 215.105469 132.871094 C 214.664062 133.234375 214.242188 133.617188 213.84375 134.019531 C 213.441406 134.421875 213.058594 134.84375 212.699219 135.28125 C 212.335938 135.722656 212 136.179688 211.683594 136.652344 C 211.367188 137.125 211.078125 137.613281 210.808594 138.117188 C 210.539062 138.617188 210.296875 139.132812 210.082031 139.660156 C 209.863281 140.183594 209.671875 140.71875 209.507812 141.265625 C 209.339844 141.808594 209.203125 142.363281 209.09375 142.921875 C 208.980469 143.480469 208.898438 144.042969 208.84375 144.609375 C 208.785156 145.175781 208.757812 145.742188 208.757812 146.3125 C 208.757812 146.882812 208.785156 147.449219 208.84375 148.015625 C 208.898438 148.582031 208.980469 149.144531 209.09375 149.703125 C 209.203125 150.261719 209.339844 150.8125 209.507812 151.359375 C 209.671875 151.902344 209.863281 152.441406 210.082031 152.964844 C 210.296875 153.492188 210.539062 154.007812 210.808594 154.507812 C 211.078125 155.011719 211.367188 155.5 211.683594 155.972656 C 212 156.445312 212.335938 156.902344 212.699219 157.34375 C 213.058594 157.78125 213.441406 158.203125 213.84375 158.605469 C 214.242188 159.007812 214.664062 159.390625 215.105469 159.753906 C 215.542969 160.113281 216 160.453125 216.472656 160.769531 C 216.945312 161.085938 217.429688 161.378906 217.933594 161.644531 C 218.433594 161.914062 218.945312 162.15625 219.472656 162.375 C 219.996094 162.59375 220.53125 162.785156 221.074219 162.949219 C 221.621094 163.113281 222.171875 163.253906 222.726562 163.363281 C 223.285156 163.476562 223.847656 163.558594 224.414062 163.613281 C 224.976562 163.671875 225.546875 163.699219 226.113281 163.699219 C 226.683594 163.699219 227.25 163.671875 227.816406 163.613281 C 228.378906 163.558594 228.941406 163.476562 229.5 163.363281 C 230.058594 163.253906 230.605469 163.113281 231.152344 162.949219 C 231.695312 162.785156 232.230469 162.59375 232.753906 162.375 C 233.28125 162.15625 233.792969 161.914062 234.292969 161.644531 C 234.796875 161.378906 235.28125 161.085938 235.753906 160.769531 C 236.226562 160.453125 236.683594 160.113281 237.121094 159.753906 C 237.5625 159.390625 237.984375 159.007812 238.386719 158.605469 C 238.785156 158.203125 239.167969 157.78125 239.527344 157.34375 C 239.890625 156.902344 240.226562 156.445312 240.542969 155.972656 C 240.859375 155.5 241.152344 155.011719 241.417969 154.507812 C 241.6875 154.007812 241.929688 153.492188 242.148438 152.964844 C 242.363281 152.441406 242.554688 151.902344 242.71875 151.359375 C 242.886719 150.8125 243.023438 150.261719 243.132812 149.703125 C 243.246094 149.144531 243.328125 148.582031 243.382812 148.015625 C 243.441406 147.449219 243.46875 146.882812 243.46875 146.3125 C 243.46875 145.742188 243.441406 145.175781 243.382812 144.609375 C 243.328125 144.042969 243.246094 143.480469 243.132812 142.921875 C 243.023438 142.363281 242.886719 141.808594 242.71875 141.265625 C 242.554688 140.71875 242.363281 140.183594 242.148438 139.660156 C 241.929688 139.132812 241.6875 138.617188 241.417969 138.117188 C 241.152344 137.613281 240.859375 137.125 240.542969 136.652344 C 240.226562 136.179688 239.890625 135.722656 239.527344 135.28125 C 239.167969 134.84375 238.785156 134.421875 238.386719 134.019531 C 237.984375 133.617188 237.5625 133.234375 237.121094 132.871094 C 236.683594 132.511719 236.226562 132.171875 235.753906 131.855469 C 235.28125 131.539062 234.796875 131.246094 234.292969 130.980469 C 233.792969 130.710938 233.28125 130.46875 232.753906 130.25 C 232.230469 130.03125 231.695312 129.839844 231.152344 129.675781 C 230.605469 129.507812 230.058594 129.371094 229.5 129.261719 C 228.941406 129.148438 228.378906 129.066406 227.816406 129.007812 C 227.25 128.953125 226.683594 128.925781 226.113281 128.925781 Z M 226.113281 155.003906 C 225.542969 155.003906 224.980469 154.949219 224.421875 154.839844 C 223.863281 154.726562 223.320312 154.5625 222.792969 154.34375 C 222.265625 154.125 221.765625 153.859375 221.292969 153.539062 C 220.820312 153.222656 220.378906 152.863281 219.976562 152.460938 C 219.574219 152.054688 219.214844 151.617188 218.898438 151.140625 C 218.582031 150.667969 218.316406 150.167969 218.097656 149.640625 C 217.878906 149.113281 217.714844 148.566406 217.601562 148.007812 C 217.492188 147.449219 217.4375 146.882812 217.4375 146.3125 C 217.4375 145.742188 217.492188 145.175781 217.601562 144.617188 C 217.714844 144.054688 217.878906 143.511719 218.097656 142.984375 C 218.316406 142.457031 218.582031 141.957031 218.898438 141.484375 C 219.214844 141.007812 219.574219 140.570312 219.976562 140.164062 C 220.378906 139.761719 220.820312 139.402344 221.292969 139.085938 C 221.765625 138.765625 222.265625 138.5 222.792969 138.28125 C 223.320312 138.0625 223.863281 137.898438 224.421875 137.785156 C 224.980469 137.675781 225.542969 137.617188 226.113281 137.617188 C 226.683594 137.617188 227.246094 137.675781 227.804688 137.785156 C 228.363281 137.898438 228.90625 138.0625 229.433594 138.28125 C 229.960938 138.5 230.460938 138.765625 230.933594 139.085938 C 231.40625 139.402344 231.847656 139.761719 232.25 140.164062 C 232.652344 140.570312 233.011719 141.007812 233.328125 141.484375 C 233.644531 141.957031 233.914062 142.457031 234.128906 142.984375 C 234.347656 143.511719 234.511719 144.054688 234.625 144.617188 C 234.734375 145.175781 234.789062 145.742188 234.789062 146.3125 C 234.789062 146.882812 234.734375 147.449219 234.625 148.007812 C 234.511719 148.566406 234.347656 149.113281 234.128906 149.640625 C 233.914062 150.167969 233.644531 150.667969 233.328125 151.140625 C 233.011719 151.617188 232.652344 152.054688 232.25 152.460938 C 231.847656 152.863281 231.40625 153.222656 230.933594 153.539062 C 230.460938 153.859375 229.960938 154.125 229.433594 154.34375 C 228.90625 154.5625 228.363281 154.726562 227.804688 154.839844 C 227.246094 154.949219 226.683594 155.003906 226.113281 155.003906 Z M 148.019531 128.925781 C 147.449219 128.925781 146.882812 128.953125 146.316406 129.007812 C 145.753906 129.066406 145.191406 129.148438 144.632812 129.261719 C 144.074219 129.371094 143.523438 129.507812 142.980469 129.675781 C 142.4375 129.839844 141.902344 130.03125 141.378906 130.25 C 140.851562 130.46875 140.339844 130.710938 139.839844 130.980469 C 139.335938 131.246094 138.851562 131.539062 138.378906 131.855469 C 137.90625 132.171875 137.449219 132.511719 137.007812 132.871094 C 136.570312 133.234375 136.148438 133.617188 135.746094 134.019531 C 135.34375 134.421875 134.964844 134.84375 134.605469 135.28125 C 134.242188 135.722656 133.90625 136.179688 133.589844 136.652344 C 133.273438 137.125 132.980469 137.613281 132.714844 138.117188 C 132.445312 138.617188 132.203125 139.132812 131.984375 139.660156 C 131.769531 140.183594 131.578125 140.71875 131.410156 141.265625 C 131.246094 141.808594 131.109375 142.363281 130.996094 142.921875 C 130.886719 143.480469 130.804688 144.042969 130.746094 144.609375 C 130.691406 145.175781 130.664062 145.742188 130.664062 146.3125 C 130.664062 146.882812 130.691406 147.449219 130.746094 148.015625 C 130.804688 148.582031 130.886719 149.144531 130.996094 149.703125 C 131.109375 150.261719 131.246094 150.8125 131.410156 151.359375 C 131.578125 151.902344 131.769531 152.441406 131.984375 152.964844 C 132.203125 153.492188 132.445312 154.007812 132.714844 154.507812 C 132.980469 155.011719 133.273438 155.5 133.589844 155.972656 C 133.90625 156.445312 134.242188 156.902344 134.605469 157.34375 C 134.964844 157.78125 135.34375 158.203125 135.746094 158.605469 C 136.148438 159.007812 136.570312 159.390625 137.007812 159.753906 C 137.449219 160.113281 137.90625 160.453125 138.378906 160.769531 C 138.851562 161.085938 139.335938 161.378906 139.839844 161.644531 C 140.339844 161.914062 140.851562 162.15625 141.378906 162.375 C 141.902344 162.59375 142.4375 162.785156 142.980469 162.949219 C 143.523438 163.113281 144.074219 163.253906 144.632812 163.363281 C 145.191406 163.476562 145.753906 163.558594 146.316406 163.613281 C 146.882812 163.671875 147.449219 163.699219 148.019531 163.699219 C 148.585938 163.699219 149.152344 163.671875 149.71875 163.613281 C 150.285156 163.558594 150.847656 163.476562 151.40625 163.363281 C 151.960938 163.253906 152.511719 163.113281 153.054688 162.949219 C 153.601562 162.785156 154.136719 162.59375 154.660156 162.375 C 155.183594 162.15625 155.699219 161.914062 156.199219 161.644531 C 156.699219 161.378906 157.1875 161.085938 157.660156 160.769531 C 158.132812 160.453125 158.589844 160.113281 159.027344 159.753906 C 159.46875 159.390625 159.886719 159.007812 160.289062 158.605469 C 160.691406 158.203125 161.074219 157.78125 161.433594 157.34375 C 161.792969 156.902344 162.132812 156.445312 162.449219 155.972656 C 162.765625 155.5 163.054688 155.011719 163.324219 154.507812 C 163.59375 154.007812 163.835938 153.492188 164.050781 152.964844 C 164.269531 152.441406 164.460938 151.902344 164.625 151.359375 C 164.789062 150.8125 164.929688 150.261719 165.039062 149.703125 C 165.152344 149.144531 165.234375 148.582031 165.289062 148.015625 C 165.34375 147.449219 165.375 146.882812 165.375 146.3125 C 165.375 145.742188 165.34375 145.175781 165.289062 144.609375 C 165.234375 144.042969 165.152344 143.480469 165.039062 142.921875 C 164.929688 142.363281 164.789062 141.808594 164.625 141.265625 C 164.460938 140.71875 164.269531 140.183594 164.050781 139.660156 C 163.835938 139.132812 163.59375 138.617188 163.324219 138.117188 C 163.054688 137.613281 162.765625 137.125 162.449219 136.652344 C 162.132812 136.179688 161.792969 135.722656 161.433594 135.28125 C 161.074219 134.84375 160.691406 134.421875 160.289062 134.019531 C 159.886719 133.617188 159.46875 133.234375 159.027344 132.871094 C 158.589844 132.511719 158.132812 132.171875 157.660156 131.855469 C 157.1875 131.539062 156.699219 131.246094 156.199219 130.980469 C 155.699219 130.710938 155.183594 130.46875 154.660156 130.25 C 154.136719 130.03125 153.601562 129.839844 153.054688 129.675781 C 152.511719 129.507812 151.960938 129.371094 151.40625 129.261719 C 150.847656 129.148438 150.285156 129.066406 149.71875 129.007812 C 149.152344 128.953125 148.585938 128.925781 148.019531 128.925781 Z M 148.019531 155.003906 C 147.449219 155.003906 146.882812 154.949219 146.324219 154.839844 C 145.765625 154.726562 145.222656 154.5625 144.699219 154.34375 C 144.171875 154.125 143.671875 153.859375 143.199219 153.539062 C 142.722656 153.222656 142.285156 152.863281 141.882812 152.460938 C 141.480469 152.054688 141.121094 151.617188 140.804688 151.140625 C 140.488281 150.667969 140.21875 150.167969 140.003906 149.640625 C 139.785156 149.113281 139.621094 148.566406 139.507812 148.007812 C 139.398438 147.449219 139.339844 146.882812 139.339844 146.3125 C 139.339844 145.742188 139.398438 145.175781 139.507812 144.617188 C 139.621094 144.054688 139.785156 143.511719 140.003906 142.984375 C 140.21875 142.457031 140.488281 141.957031 140.804688 141.484375 C 141.121094 141.007812 141.480469 140.570312 141.882812 140.164062 C 142.285156 139.761719 142.722656 139.402344 143.199219 139.085938 C 143.671875 138.765625 144.171875 138.5 144.699219 138.28125 C 145.222656 138.0625 145.765625 137.898438 146.324219 137.785156 C 146.882812 137.675781 147.449219 137.617188 148.019531 137.617188 C 148.589844 137.617188 149.152344 137.675781 149.710938 137.785156 C 150.269531 137.898438 150.8125 138.0625 151.339844 138.28125 C 151.867188 138.5 152.367188 138.765625 152.839844 139.085938 C 153.3125 139.402344 153.75 139.761719 154.15625 140.164062 C 154.558594 140.570312 154.917969 141.007812 155.234375 141.484375 C 155.550781 141.957031 155.816406 142.457031 156.035156 142.984375 C 156.253906 143.511719 156.417969 144.054688 156.527344 144.617188 C 156.640625 145.175781 156.695312 145.742188 156.695312 146.3125 C 156.695312 146.882812 156.640625 147.449219 156.527344 148.007812 C 156.417969 148.566406 156.253906 149.113281 156.035156 149.640625 C 155.816406 150.167969 155.550781 150.667969 155.234375 151.140625 C 154.917969 151.617188 154.558594 152.054688 154.15625 152.460938 C 153.75 152.863281 153.3125 153.222656 152.839844 153.539062 C 152.367188 153.859375 151.867188 154.125 151.339844 154.34375 C 150.8125 154.5625 150.269531 154.726562 149.710938 154.839844 C 149.152344 154.949219 148.589844 155.003906 148.019531 155.003906 Z M 230.105469 107.367188 C 226.289062 106.957031 222.507812 107.179688 218.761719 108.027344 C 215.015625 108.875 211.507812 110.308594 208.238281 112.320312 C 208.050781 111.644531 207.808594 110.984375 207.511719 110.347656 C 207.214844 109.707031 206.871094 109.097656 206.472656 108.515625 C 206.078125 107.929688 205.640625 107.386719 205.15625 106.875 C 204.671875 106.363281 204.148438 105.894531 203.585938 105.472656 C 203.027344 105.046875 202.433594 104.667969 201.8125 104.339844 C 201.191406 104.011719 200.546875 103.738281 199.878906 103.511719 C 199.214844 103.289062 198.53125 103.121094 197.839844 103.011719 C 197.144531 102.898438 196.445312 102.84375 195.742188 102.847656 L 178.390625 102.847656 C 177.6875 102.851562 176.992188 102.910156 176.300781 103.027344 C 175.609375 103.144531 174.929688 103.316406 174.265625 103.542969 C 173.601562 103.769531 172.960938 104.046875 172.339844 104.375 C 171.71875 104.707031 171.128906 105.082031 170.570312 105.507812 C 170.011719 105.929688 169.492188 106.398438 169.003906 106.90625 C 168.519531 107.414062 168.082031 107.957031 167.683594 108.535156 C 167.285156 109.113281 166.9375 109.722656 166.636719 110.355469 C 166.335938 110.992188 166.089844 111.648438 165.894531 112.320312 C 162.632812 110.289062 159.125 108.847656 155.378906 107.996094 C 151.628906 107.148438 147.847656 106.9375 144.027344 107.367188 C 142.960938 107.527344 141.902344 107.730469 140.855469 107.984375 C 139.804688 108.238281 138.769531 108.539062 137.75 108.886719 C 136.730469 109.234375 135.726562 109.625 134.738281 110.0625 C 133.753906 110.5 132.789062 110.980469 131.84375 111.507812 C 130.902344 112.03125 129.984375 112.597656 129.09375 113.203125 C 128.199219 113.808594 127.335938 114.457031 126.5 115.140625 C 125.667969 115.824219 124.867188 116.546875 124.09375 117.300781 C 123.324219 118.058594 122.589844 118.847656 121.890625 119.671875 C 121.195312 120.496094 120.53125 121.347656 119.910156 122.230469 C 119.289062 123.113281 118.707031 124.019531 118.164062 124.957031 C 117.625 125.890625 117.125 126.847656 116.671875 127.828125 C 116.214844 128.804688 115.804688 129.804688 115.441406 130.820312 C 115.074219 131.835938 114.753906 132.867188 114.480469 133.914062 C 114.207031 134.957031 113.980469 136.015625 113.804688 137.078125 C 113.625 138.144531 113.496094 139.214844 113.414062 140.292969 C 113.328125 141.371094 113.296875 142.449219 113.308594 143.53125 L 113.308594 192.386719 C 113.308594 193.921875 113.457031 195.441406 113.753906 196.949219 C 114.054688 198.453125 114.496094 199.914062 115.085938 201.332031 C 115.671875 202.75 116.394531 204.097656 117.25 205.371094 C 118.105469 206.644531 119.078125 207.820312 120.164062 208.902344 C 121.246094 210.003906 122.425781 210.988281 123.703125 211.855469 C 124.980469 212.71875 126.332031 213.453125 127.753906 214.046875 C 129.175781 214.644531 130.644531 215.097656 132.15625 215.402344 C 133.667969 215.707031 135.195312 215.859375 136.738281 215.859375 C 137.78125 215.855469 138.820312 215.785156 139.851562 215.648438 C 140.886719 215.507812 141.90625 215.300781 142.914062 215.027344 C 143.917969 214.753906 144.902344 214.414062 145.863281 214.007812 C 146.824219 213.605469 147.757812 213.136719 148.65625 212.609375 C 149.554688 212.078125 150.417969 211.496094 151.238281 210.851562 C 152.058594 210.207031 152.835938 209.515625 153.566406 208.769531 C 154.296875 208.023438 154.972656 207.230469 155.601562 206.394531 C 156.226562 205.558594 156.792969 204.683594 157.304688 203.773438 L 172.226562 176.738281 L 201.902344 176.738281 L 216.828125 203.773438 C 217.460938 204.894531 218.179688 205.960938 218.988281 206.964844 C 219.792969 207.96875 220.675781 208.898438 221.632812 209.757812 C 222.59375 210.617188 223.617188 211.390625 224.703125 212.082031 C 225.789062 212.773438 226.921875 213.371094 228.105469 213.875 C 229.289062 214.378906 230.507812 214.785156 231.757812 215.085938 C 233.007812 215.390625 234.273438 215.59375 235.554688 215.6875 C 236.835938 215.785156 238.121094 215.773438 239.402344 215.660156 C 240.683594 215.546875 241.945312 215.328125 243.191406 215.003906 C 244.4375 214.683594 245.648438 214.261719 246.824219 213.738281 C 248 213.21875 249.125 212.605469 250.199219 211.898438 C 251.277344 211.191406 252.289062 210.402344 253.234375 209.527344 C 254.179688 208.65625 255.050781 207.710938 255.839844 206.695312 C 256.632812 205.679688 257.335938 204.605469 257.953125 203.476562 C 258.566406 202.34375 259.089844 201.167969 259.511719 199.953125 C 259.933594 198.734375 260.257812 197.492188 260.476562 196.222656 C 260.695312 194.953125 260.8125 193.675781 260.824219 192.386719 L 260.824219 143.53125 C 260.835938 142.449219 260.800781 141.371094 260.71875 140.292969 C 260.636719 139.214844 260.507812 138.144531 260.328125 137.078125 C 260.148438 136.015625 259.925781 134.957031 259.652344 133.914062 C 259.378906 132.867188 259.058594 131.835938 258.691406 130.820312 C 258.328125 129.804688 257.917969 128.804688 257.460938 127.828125 C 257.007812 126.847656 256.507812 125.890625 255.96875 124.957031 C 255.425781 124.019531 254.84375 123.113281 254.222656 122.230469 C 253.597656 121.347656 252.9375 120.496094 252.238281 119.671875 C 251.539062 118.847656 250.804688 118.058594 250.035156 117.300781 C 249.265625 116.546875 248.464844 115.824219 247.628906 115.140625 C 246.796875 114.457031 245.933594 113.808594 245.039062 113.203125 C 244.148438 112.597656 243.230469 112.03125 242.289062 111.507812 C 241.34375 110.980469 240.378906 110.5 239.394531 110.0625 C 238.40625 109.625 237.402344 109.234375 236.382812 108.886719 C 235.359375 108.539062 234.324219 108.238281 233.277344 107.984375 C 232.230469 107.730469 231.171875 107.527344 230.105469 107.367188 Z M 178.390625 111.539062 L 195.742188 111.539062 C 196.027344 111.539062 196.308594 111.566406 196.589844 111.621094 C 196.867188 111.679688 197.140625 111.761719 197.402344 111.871094 C 197.667969 111.980469 197.917969 112.113281 198.152344 112.273438 C 198.390625 112.429688 198.609375 112.609375 198.8125 112.8125 C 199.011719 113.015625 199.191406 113.234375 199.351562 113.472656 C 199.507812 113.707031 199.644531 113.960938 199.75 114.222656 C 199.859375 114.488281 199.941406 114.757812 200 115.039062 C 200.054688 115.316406 200.082031 115.601562 200.082031 115.886719 L 200.082031 117.101562 L 199.648438 117.101562 C 197.929688 117.871094 196.164062 118.507812 194.355469 119.015625 L 193.402344 119.015625 C 189.4375 119.851562 185.476562 119.851562 181.511719 119.015625 L 180.472656 119.015625 C 178.472656 118.488281 176.535156 117.792969 174.65625 116.929688 L 174.050781 117.101562 L 174.050781 115.886719 C 174.050781 115.601562 174.078125 115.316406 174.132812 115.039062 C 174.1875 114.757812 174.273438 114.488281 174.378906 114.222656 C 174.488281 113.960938 174.625 113.707031 174.78125 113.472656 C 174.941406 113.234375 175.121094 113.015625 175.320312 112.8125 C 175.523438 112.609375 175.742188 112.429688 175.980469 112.273438 C 176.214844 112.113281 176.464844 111.980469 176.730469 111.871094 C 176.992188 111.761719 177.261719 111.679688 177.542969 111.621094 C 177.820312 111.566406 178.105469 111.539062 178.390625 111.539062 Z M 252.144531 192.386719 C 252.152344 193.203125 252.089844 194.015625 251.960938 194.820312 C 251.832031 195.625 251.636719 196.417969 251.378906 197.191406 C 251.117188 197.964844 250.796875 198.710938 250.414062 199.433594 C 250.03125 200.152344 249.589844 200.839844 249.09375 201.484375 C 248.597656 202.132812 248.054688 202.734375 247.457031 203.292969 C 246.859375 203.851562 246.222656 204.355469 245.542969 204.804688 C 244.863281 205.257812 244.152344 205.648438 243.410156 205.980469 C 242.664062 206.3125 241.898438 206.582031 241.109375 206.789062 C 240.320312 206.996094 239.519531 207.132812 238.707031 207.207031 C 237.894531 207.28125 237.082031 207.285156 236.269531 207.222656 C 235.457031 207.160156 234.65625 207.03125 233.863281 206.835938 C 233.074219 206.640625 232.304688 206.382812 231.554688 206.058594 C 230.804688 205.734375 230.089844 205.351562 229.40625 204.910156 C 228.71875 204.46875 228.074219 203.972656 227.472656 203.421875 C 226.867188 202.875 226.316406 202.277344 225.808594 201.636719 C 225.304688 200.996094 224.855469 200.316406 224.464844 199.601562 L 207.109375 168.046875 L 167.195312 168.046875 L 149.839844 199.601562 C 149.546875 200.082031 149.226562 200.542969 148.882812 200.988281 C 148.535156 201.433594 148.167969 201.855469 147.777344 202.257812 C 147.382812 202.664062 146.972656 203.042969 146.535156 203.402344 C 146.101562 203.757812 145.648438 204.089844 145.179688 204.398438 C 144.707031 204.703125 144.21875 204.984375 143.71875 205.238281 C 143.214844 205.488281 142.703125 205.714844 142.175781 205.910156 C 141.648438 206.105469 141.113281 206.273438 140.566406 206.40625 C 140.019531 206.542969 139.46875 206.648438 138.914062 206.722656 C 138.355469 206.796875 137.796875 206.84375 137.234375 206.855469 C 136.671875 206.867188 136.109375 206.847656 135.550781 206.796875 C 134.992188 206.75 134.4375 206.667969 133.886719 206.554688 C 133.335938 206.445312 132.792969 206.300781 132.257812 206.128906 C 131.722656 205.957031 131.199219 205.757812 130.683594 205.527344 C 130.171875 205.296875 129.671875 205.039062 129.1875 204.75 C 128.703125 204.464844 128.238281 204.152344 127.789062 203.816406 C 127.339844 203.476562 126.910156 203.117188 126.5 202.730469 C 125.078125 201.386719 123.976562 199.816406 123.191406 198.019531 C 122.410156 196.222656 122.007812 194.34375 121.988281 192.386719 L 121.988281 143.53125 C 121.96875 142.714844 121.988281 141.898438 122.046875 141.082031 C 122.101562 140.265625 122.195312 139.453125 122.324219 138.648438 C 122.453125 137.839844 122.621094 137.039062 122.820312 136.246094 C 123.023438 135.457031 123.257812 134.675781 123.53125 133.902344 C 123.800781 133.132812 124.109375 132.375 124.449219 131.632812 C 124.789062 130.890625 125.160156 130.164062 125.566406 129.453125 C 125.96875 128.742188 126.40625 128.054688 126.875 127.382812 C 127.339844 126.710938 127.835938 126.066406 128.363281 125.4375 C 128.886719 124.8125 129.441406 124.214844 130.019531 123.636719 C 130.601562 123.0625 131.203125 122.515625 131.832031 121.992188 C 132.460938 121.472656 133.113281 120.980469 133.785156 120.519531 C 134.457031 120.054688 135.152344 119.625 135.863281 119.226562 C 136.574219 118.824219 137.304688 118.460938 138.046875 118.125 C 138.792969 117.792969 139.550781 117.492188 140.324219 117.226562 C 141.09375 116.960938 141.878906 116.730469 142.667969 116.535156 C 143.460938 116.339844 144.261719 116.183594 145.070312 116.058594 C 148.242188 115.699219 151.378906 115.914062 154.472656 116.707031 C 157.566406 117.5 160.421875 118.820312 163.03125 120.667969 L 165.375 122.144531 L 167.542969 123.449219 C 171.707031 125.753906 176.132812 127.320312 180.820312 128.144531 L 181.773438 128.144531 C 182.929688 128.230469 184.085938 128.230469 185.242188 128.144531 L 187.414062 128.144531 C 192.09375 128.089844 196.605469 127.191406 200.949219 125.449219 L 201.644531 125.449219 C 203.082031 124.886719 204.472656 124.222656 205.808594 123.449219 L 206.417969 123.449219 L 208.757812 122.320312 L 211.1875 120.839844 C 212.472656 119.90625 213.832031 119.101562 215.269531 118.425781 C 216.707031 117.75 218.191406 117.214844 219.730469 116.820312 C 221.269531 116.425781 222.828125 116.179688 224.414062 116.082031 C 225.996094 115.980469 227.574219 116.03125 229.152344 116.234375 C 229.953125 116.359375 230.746094 116.519531 231.53125 116.714844 C 232.320312 116.910156 233.097656 117.140625 233.863281 117.40625 C 234.628906 117.671875 235.382812 117.96875 236.121094 118.304688 C 236.859375 118.636719 237.582031 119 238.289062 119.398438 C 238.996094 119.796875 239.683594 120.226562 240.355469 120.683594 C 241.023438 121.144531 241.667969 121.632812 242.292969 122.152344 C 242.917969 122.667969 243.519531 123.214844 244.097656 123.785156 C 244.671875 124.355469 245.222656 124.953125 245.746094 125.574219 C 246.265625 126.195312 246.761719 126.835938 247.226562 127.5 C 247.691406 128.167969 248.128906 128.851562 248.53125 129.554688 C 248.9375 130.257812 249.308594 130.980469 249.648438 131.71875 C 249.988281 132.457031 250.292969 133.207031 250.566406 133.972656 C 250.839844 134.738281 251.078125 135.511719 251.28125 136.296875 C 251.484375 137.085938 251.652344 137.878906 251.785156 138.679688 C 251.917969 139.480469 252.011719 140.285156 252.074219 141.097656 C 252.132812 141.90625 252.15625 142.71875 252.144531 143.53125 Z M 252.144531 192.386719 " clip-rule="nonzero"/></clipPath><linearGradient x1="-0.00164793" gradientTransform="matrix(8.677201, 0, 0, 8.693182, 113.309916, 102.846318)" y1="6.5" x2="17.00165" gradientUnits="userSpaceOnUse" y2="6.5" id="0768088a95"><stop stop-opacity="1" stop-color="rgb(7.099915%, 76.098633%, 91.398621%)" offset="0"/><stop stop-opacity="1" stop-color="rgb(7.254028%, 75.622559%, 91.178894%)" offset="0.00390625"/><stop stop-opacity="1" stop-color="rgb(7.408142%, 75.14801%, 90.959167%)" offset="0.0078125"/><stop stop-opacity="1" stop-color="rgb(7.563782%, 74.665833%, 90.736389%)" offset="0.0117188"/><stop stop-opacity="1" stop-color="rgb(7.720947%, 74.185181%, 90.515137%)" offset="0.015625"/><stop stop-opacity="1" stop-color="rgb(7.876587%, 73.703003%, 90.292358%)" offset="0.0195312"/><stop stop-opacity="1" stop-color="rgb(8.033752%, 73.222351%, 90.06958%)" offset="0.0234375"/><stop stop-opacity="1" stop-color="rgb(8.189392%, 72.740173%, 89.846802%)" offset="0.0273437"/><stop stop-opacity="1" stop-color="rgb(8.345032%, 72.257996%, 89.625549%)" offset="0.03125"/><stop stop-opacity="1" stop-color="rgb(8.500671%, 71.775818%, 89.402771%)" offset="0.0351562"/><stop stop-opacity="1" stop-color="rgb(8.657837%, 71.295166%, 89.179993%)" offset="0.0390625"/><stop stop-opacity="1" stop-color="rgb(8.813477%, 70.812988%, 88.957214%)" offset="0.0429687"/><stop stop-opacity="1" stop-color="rgb(8.970642%, 70.332336%, 88.735962%)" offset="0.046875"/><stop stop-opacity="1" stop-color="rgb(9.126282%, 69.850159%, 88.513184%)" offset="0.0507812"/><stop stop-opacity="1" stop-color="rgb(9.283447%, 69.369507%, 88.290405%)" offset="0.0546875"/><stop stop-opacity="1" stop-color="rgb(9.439087%, 68.887329%, 88.067627%)" offset="0.0585937"/><stop stop-opacity="1" stop-color="rgb(9.596252%, 68.405151%, 87.844849%)" offset="0.0625"/><stop stop-opacity="1" stop-color="rgb(9.751892%, 67.922974%, 87.62207%)" offset="0.0664062"/><stop stop-opacity="1" stop-color="rgb(9.909058%, 67.442322%, 87.400818%)" offset="0.0703125"/><stop stop-opacity="1" stop-color="rgb(10.064697%, 66.960144%, 87.17804%)" offset="0.0742188"/><stop stop-opacity="1" stop-color="rgb(10.220337%, 66.479492%, 86.955261%)" offset="0.078125"/><stop stop-opacity="1" stop-color="rgb(10.375977%, 65.997314%, 86.732483%)" offset="0.0820312"/><stop stop-opacity="1" stop-color="rgb(10.533142%, 65.516663%, 86.51123%)" offset="0.0859375"/><stop stop-opacity="1" stop-color="rgb(10.688782%, 65.034485%, 86.288452%)" offset="0.0898437"/><stop stop-opacity="1" stop-color="rgb(10.845947%, 64.552307%, 86.065674%)" offset="0.09375"/><stop stop-opacity="1" stop-color="rgb(11.001587%, 64.070129%, 85.842896%)" offset="0.0976562"/><stop stop-opacity="1" stop-color="rgb(11.158752%, 63.589478%, 85.620117%)" offset="0.101562"/><stop stop-opacity="1" stop-color="rgb(11.314392%, 63.1073%, 85.397339%)" offset="0.105469"/><stop stop-opacity="1" stop-color="rgb(11.471558%, 62.626648%, 85.176086%)" offset="0.109375"/><stop stop-opacity="1" stop-color="rgb(11.627197%, 62.14447%, 84.953308%)" offset="0.113281"/><stop stop-opacity="1" stop-color="rgb(11.784363%, 61.663818%, 84.73053%)" offset="0.117187"/><stop stop-opacity="1" stop-color="rgb(11.940002%, 61.181641%, 84.507751%)" offset="0.121094"/><stop stop-opacity="1" stop-color="rgb(12.095642%, 60.699463%, 84.286499%)" offset="0.125"/><stop stop-opacity="1" stop-color="rgb(12.251282%, 60.217285%, 84.063721%)" offset="0.128906"/><stop stop-opacity="1" stop-color="rgb(12.408447%, 59.736633%, 83.840942%)" offset="0.132812"/><stop stop-opacity="1" stop-color="rgb(12.564087%, 59.254456%, 83.618164%)" offset="0.136719"/><stop stop-opacity="1" stop-color="rgb(12.721252%, 58.773804%, 83.396912%)" offset="0.140625"/><stop stop-opacity="1" stop-color="rgb(12.876892%, 58.291626%, 83.174133%)" offset="0.144531"/><stop stop-opacity="1" stop-color="rgb(13.034058%, 57.810974%, 82.951355%)" offset="0.148438"/><stop stop-opacity="1" stop-color="rgb(13.189697%, 57.328796%, 82.728577%)" offset="0.152344"/><stop stop-opacity="1" stop-color="rgb(13.346863%, 56.846619%, 82.505798%)" offset="0.15625"/><stop stop-opacity="1" stop-color="rgb(13.502502%, 56.364441%, 82.28302%)" offset="0.160156"/><stop stop-opacity="1" stop-color="rgb(13.659668%, 55.883789%, 82.061768%)" offset="0.164062"/><stop stop-opacity="1" stop-color="rgb(13.815308%, 55.401611%, 81.838989%)" offset="0.167969"/><stop stop-opacity="1" stop-color="rgb(13.970947%, 54.920959%, 81.616211%)" offset="0.171875"/><stop stop-opacity="1" stop-color="rgb(14.126587%, 54.438782%, 81.393433%)" offset="0.175781"/><stop stop-opacity="1" stop-color="rgb(14.283752%, 53.95813%, 81.17218%)" offset="0.179687"/><stop stop-opacity="1" stop-color="rgb(14.439392%, 53.475952%, 80.949402%)" offset="0.183594"/><stop stop-opacity="1" stop-color="rgb(14.596558%, 52.993774%, 80.726624%)" offset="0.1875"/><stop stop-opacity="1" stop-color="rgb(14.752197%, 52.511597%, 80.503845%)" offset="0.191406"/><stop stop-opacity="1" stop-color="rgb(14.909363%, 52.030945%, 80.281067%)" offset="0.195312"/><stop stop-opacity="1" stop-color="rgb(15.065002%, 51.548767%, 80.058289%)" offset="0.199219"/><stop stop-opacity="1" stop-color="rgb(15.222168%, 51.068115%, 79.837036%)" offset="0.203125"/><stop stop-opacity="1" stop-color="rgb(15.377808%, 50.585938%, 79.614258%)" offset="0.207031"/><stop stop-opacity="1" stop-color="rgb(15.534973%, 50.105286%, 79.391479%)" offset="0.210937"/><stop stop-opacity="1" stop-color="rgb(15.690613%, 49.623108%, 79.168701%)" offset="0.214844"/><stop stop-opacity="1" stop-color="rgb(15.847778%, 49.14093%, 78.947449%)" offset="0.21875"/><stop stop-opacity="1" stop-color="rgb(16.003418%, 48.658752%, 78.72467%)" offset="0.222656"/><stop stop-opacity="1" stop-color="rgb(16.159058%, 48.178101%, 78.501892%)" offset="0.226562"/><stop stop-opacity="1" stop-color="rgb(16.314697%, 47.695923%, 78.279114%)" offset="0.230469"/><stop stop-opacity="1" stop-color="rgb(16.471863%, 47.215271%, 78.057861%)" offset="0.234375"/><stop stop-opacity="1" stop-color="rgb(16.627502%, 46.733093%, 77.835083%)" offset="0.238281"/><stop stop-opacity="1" stop-color="rgb(16.784668%, 46.252441%, 77.612305%)" offset="0.242187"/><stop stop-opacity="1" stop-color="rgb(16.940308%, 45.770264%, 77.389526%)" offset="0.246094"/><stop stop-opacity="1" stop-color="rgb(17.097473%, 45.289612%, 77.166748%)" offset="0.25"/><stop stop-opacity="1" stop-color="rgb(17.253113%, 44.807434%, 76.94397%)" offset="0.253906"/><stop stop-opacity="1" stop-color="rgb(17.410278%, 44.325256%, 76.722717%)" offset="0.257812"/><stop stop-opacity="1" stop-color="rgb(17.565918%, 43.843079%, 76.499939%)" offset="0.261719"/><stop stop-opacity="1" stop-color="rgb(17.723083%, 43.362427%, 76.277161%)" offset="0.265625"/><stop stop-opacity="1" stop-color="rgb(17.878723%, 42.880249%, 76.054382%)" offset="0.269531"/><stop stop-opacity="1" stop-color="rgb(18.034363%, 42.399597%, 75.83313%)" offset="0.273437"/><stop stop-opacity="1" stop-color="rgb(18.190002%, 41.917419%, 75.610352%)" offset="0.277344"/><stop stop-opacity="1" stop-color="rgb(18.347168%, 41.436768%, 75.387573%)" offset="0.28125"/><stop stop-opacity="1" stop-color="rgb(18.502808%, 40.95459%, 75.164795%)" offset="0.285156"/><stop stop-opacity="1" stop-color="rgb(18.659973%, 40.472412%, 74.942017%)" offset="0.289062"/><stop stop-opacity="1" stop-color="rgb(18.815613%, 39.990234%, 74.719238%)" offset="0.292969"/><stop stop-opacity="1" stop-color="rgb(18.972778%, 39.509583%, 74.497986%)" offset="0.296875"/><stop stop-opacity="1" stop-color="rgb(19.128418%, 39.027405%, 74.275208%)" offset="0.300781"/><stop stop-opacity="1" stop-color="rgb(19.285583%, 38.546753%, 74.052429%)" offset="0.304687"/><stop stop-opacity="1" stop-color="rgb(19.441223%, 38.064575%, 73.829651%)" offset="0.308594"/><stop stop-opacity="1" stop-color="rgb(19.598389%, 37.583923%, 73.608398%)" offset="0.3125"/><stop stop-opacity="1" stop-color="rgb(19.754028%, 37.101746%, 73.38562%)" offset="0.316406"/><stop stop-opacity="1" stop-color="rgb(19.909668%, 36.619568%, 73.162842%)" offset="0.320312"/><stop stop-opacity="1" stop-color="rgb(20.065308%, 36.13739%, 72.940063%)" offset="0.324219"/><stop stop-opacity="1" stop-color="rgb(20.222473%, 35.656738%, 72.718811%)" offset="0.328125"/><stop stop-opacity="1" stop-color="rgb(20.378113%, 35.174561%, 72.496033%)" offset="0.332031"/><stop stop-opacity="1" stop-color="rgb(20.535278%, 34.693909%, 72.273254%)" offset="0.335937"/><stop stop-opacity="1" stop-color="rgb(20.690918%, 34.211731%, 72.050476%)" offset="0.339844"/><stop stop-opacity="1" stop-color="rgb(20.848083%, 33.731079%, 71.827698%)" offset="0.34375"/><stop stop-opacity="1" stop-color="rgb(21.003723%, 33.248901%, 71.604919%)" offset="0.347656"/><stop stop-opacity="1" stop-color="rgb(21.160889%, 32.766724%, 71.383667%)" offset="0.351562"/><stop stop-opacity="1" stop-color="rgb(21.316528%, 32.284546%, 71.160889%)" offset="0.355469"/><stop stop-opacity="1" stop-color="rgb(21.473694%, 31.803894%, 70.93811%)" offset="0.359375"/><stop stop-opacity="1" stop-color="rgb(21.629333%, 31.321716%, 70.715332%)" offset="0.363281"/><stop stop-opacity="1" stop-color="rgb(21.784973%, 30.841064%, 70.49408%)" offset="0.367187"/><stop stop-opacity="1" stop-color="rgb(21.940613%, 30.358887%, 70.271301%)" offset="0.371094"/><stop stop-opacity="1" stop-color="rgb(22.097778%, 29.878235%, 70.048523%)" offset="0.375"/><stop stop-opacity="1" stop-color="rgb(22.253418%, 29.396057%, 69.825745%)" offset="0.378906"/><stop stop-opacity="1" stop-color="rgb(22.410583%, 28.913879%, 69.602966%)" offset="0.382812"/><stop stop-opacity="1" stop-color="rgb(22.566223%, 28.431702%, 69.380188%)" offset="0.386719"/><stop stop-opacity="1" stop-color="rgb(22.723389%, 27.95105%, 69.158936%)" offset="0.390625"/><stop stop-opacity="1" stop-color="rgb(22.879028%, 27.468872%, 68.936157%)" offset="0.394531"/><stop stop-opacity="1" stop-color="rgb(23.036194%, 26.98822%, 68.713379%)" offset="0.398437"/><stop stop-opacity="1" stop-color="rgb(23.191833%, 26.506042%, 68.490601%)" offset="0.402344"/><stop stop-opacity="1" stop-color="rgb(23.348999%, 26.025391%, 68.269348%)" offset="0.40625"/><stop stop-opacity="1" stop-color="rgb(23.504639%, 25.543213%, 68.04657%)" offset="0.410156"/><stop stop-opacity="1" stop-color="rgb(23.661804%, 25.061035%, 67.823792%)" offset="0.414062"/><stop stop-opacity="1" stop-color="rgb(23.817444%, 24.578857%, 67.601013%)" offset="0.417969"/><stop stop-opacity="1" stop-color="rgb(23.973083%, 24.098206%, 67.379761%)" offset="0.421875"/><stop stop-opacity="1" stop-color="rgb(24.128723%, 23.616028%, 67.156982%)" offset="0.425781"/><stop stop-opacity="1" stop-color="rgb(24.285889%, 23.135376%, 66.934204%)" offset="0.429687"/><stop stop-opacity="1" stop-color="rgb(24.441528%, 22.653198%, 66.711426%)" offset="0.433594"/><stop stop-opacity="1" stop-color="rgb(24.598694%, 22.172546%, 66.488647%)" offset="0.4375"/><stop stop-opacity="1" stop-color="rgb(24.754333%, 21.690369%, 66.265869%)" offset="0.441406"/><stop stop-opacity="1" stop-color="rgb(24.911499%, 21.209717%, 66.044617%)" offset="0.445312"/><stop stop-opacity="1" stop-color="rgb(25.067139%, 20.727539%, 65.821838%)" offset="0.449219"/><stop stop-opacity="1" stop-color="rgb(25.224304%, 20.245361%, 65.59906%)" offset="0.453125"/><stop stop-opacity="1" stop-color="rgb(25.379944%, 19.763184%, 65.376282%)" offset="0.457031"/><stop stop-opacity="1" stop-color="rgb(25.537109%, 19.282532%, 65.155029%)" offset="0.460937"/><stop stop-opacity="1" stop-color="rgb(25.692749%, 18.800354%, 64.932251%)" offset="0.464844"/><stop stop-opacity="1" stop-color="rgb(25.848389%, 18.319702%, 64.709473%)" offset="0.46875"/><stop stop-opacity="1" stop-color="rgb(26.004028%, 17.837524%, 64.486694%)" offset="0.472656"/><stop stop-opacity="1" stop-color="rgb(26.161194%, 17.356873%, 64.263916%)" offset="0.476562"/><stop stop-opacity="1" stop-color="rgb(26.316833%, 16.874695%, 64.041138%)" offset="0.480469"/><stop stop-opacity="1" stop-color="rgb(26.473999%, 16.392517%, 63.819885%)" offset="0.484375"/><stop stop-opacity="1" stop-color="rgb(26.737976%, 16.03241%, 63.60321%)" offset="0.488281"/><stop stop-opacity="1" stop-color="rgb(27.003479%, 15.672302%, 63.386536%)" offset="0.492187"/><stop stop-opacity="1" stop-color="rgb(27.546692%, 15.623474%, 63.18512%)" offset="0.496094"/><stop stop-opacity="1" stop-color="rgb(28.089905%, 15.576172%, 62.985229%)" offset="0.5"/><stop stop-opacity="1" stop-color="rgb(28.633118%, 15.527344%, 62.783813%)" offset="0.503906"/><stop stop-opacity="1" stop-color="rgb(29.176331%, 15.478516%, 62.583923%)" offset="0.507812"/><stop stop-opacity="1" stop-color="rgb(29.719543%, 15.429688%, 62.382507%)" offset="0.511719"/><stop stop-opacity="1" stop-color="rgb(30.262756%, 15.382385%, 62.182617%)" offset="0.515625"/><stop stop-opacity="1" stop-color="rgb(30.804443%, 15.333557%, 61.981201%)" offset="0.519531"/><stop stop-opacity="1" stop-color="rgb(31.347656%, 15.286255%, 61.781311%)" offset="0.523437"/><stop stop-opacity="1" stop-color="rgb(31.890869%, 15.237427%, 61.579895%)" offset="0.527344"/><stop stop-opacity="1" stop-color="rgb(32.434082%, 15.190125%, 61.380005%)" offset="0.53125"/><stop stop-opacity="1" stop-color="rgb(32.977295%, 15.141296%, 61.178589%)" offset="0.535156"/><stop stop-opacity="1" stop-color="rgb(33.520508%, 15.092468%, 60.978699%)" offset="0.539062"/><stop stop-opacity="1" stop-color="rgb(34.063721%, 15.04364%, 60.777283%)" offset="0.542969"/><stop stop-opacity="1" stop-color="rgb(34.606934%, 14.996338%, 60.577393%)" offset="0.546875"/><stop stop-opacity="1" stop-color="rgb(35.150146%, 14.94751%, 60.375977%)" offset="0.550781"/><stop stop-opacity="1" stop-color="rgb(35.693359%, 14.900208%, 60.176086%)" offset="0.554687"/><stop stop-opacity="1" stop-color="rgb(36.236572%, 14.851379%, 59.97467%)" offset="0.558594"/><stop stop-opacity="1" stop-color="rgb(36.779785%, 14.804077%, 59.77478%)" offset="0.5625"/><stop stop-opacity="1" stop-color="rgb(37.322998%, 14.755249%, 59.573364%)" offset="0.566406"/><stop stop-opacity="1" stop-color="rgb(37.866211%, 14.706421%, 59.371948%)" offset="0.570312"/><stop stop-opacity="1" stop-color="rgb(38.409424%, 14.657593%, 59.170532%)" offset="0.574219"/><stop stop-opacity="1" stop-color="rgb(38.952637%, 14.610291%, 58.970642%)" offset="0.578125"/><stop stop-opacity="1" stop-color="rgb(39.49585%, 14.561462%, 58.769226%)" offset="0.582031"/><stop stop-opacity="1" stop-color="rgb(40.039062%, 14.51416%, 58.569336%)" offset="0.585937"/><stop stop-opacity="1" stop-color="rgb(40.582275%, 14.465332%, 58.36792%)" offset="0.589844"/><stop stop-opacity="1" stop-color="rgb(41.125488%, 14.41803%, 58.16803%)" offset="0.59375"/><stop stop-opacity="1" stop-color="rgb(41.668701%, 14.369202%, 57.966614%)" offset="0.597656"/><stop stop-opacity="1" stop-color="rgb(42.211914%, 14.320374%, 57.766724%)" offset="0.601562"/><stop stop-opacity="1" stop-color="rgb(42.755127%, 14.271545%, 57.565308%)" offset="0.605469"/><stop stop-opacity="1" stop-color="rgb(43.29834%, 14.224243%, 57.365417%)" offset="0.609375"/><stop stop-opacity="1" stop-color="rgb(43.840027%, 14.175415%, 57.164001%)" offset="0.613281"/><stop stop-opacity="1" stop-color="rgb(44.38324%, 14.128113%, 56.964111%)" offset="0.617187"/><stop stop-opacity="1" stop-color="rgb(44.926453%, 14.079285%, 56.762695%)" offset="0.621094"/><stop stop-opacity="1" stop-color="rgb(45.469666%, 14.031982%, 56.562805%)" offset="0.625"/><stop stop-opacity="1" stop-color="rgb(46.012878%, 13.983154%, 56.361389%)" offset="0.628906"/><stop stop-opacity="1" stop-color="rgb(46.556091%, 13.934326%, 56.161499%)" offset="0.632812"/><stop stop-opacity="1" stop-color="rgb(47.099304%, 13.885498%, 55.960083%)" offset="0.636719"/><stop stop-opacity="1" stop-color="rgb(47.642517%, 13.838196%, 55.760193%)" offset="0.640625"/><stop stop-opacity="1" stop-color="rgb(48.18573%, 13.789368%, 55.558777%)" offset="0.644531"/><stop stop-opacity="1" stop-color="rgb(48.728943%, 13.742065%, 55.358887%)" offset="0.648437"/><stop stop-opacity="1" stop-color="rgb(49.272156%, 13.693237%, 55.157471%)" offset="0.652344"/><stop stop-opacity="1" stop-color="rgb(49.815369%, 13.645935%, 54.957581%)" offset="0.65625"/><stop stop-opacity="1" stop-color="rgb(50.358582%, 13.597107%, 54.756165%)" offset="0.660156"/><stop stop-opacity="1" stop-color="rgb(50.901794%, 13.548279%, 54.556274%)" offset="0.664062"/><stop stop-opacity="1" stop-color="rgb(51.445007%, 13.499451%, 54.354858%)" offset="0.667969"/><stop stop-opacity="1" stop-color="rgb(51.98822%, 13.452148%, 54.153442%)" offset="0.671875"/><stop stop-opacity="1" stop-color="rgb(52.531433%, 13.40332%, 53.952026%)" offset="0.675781"/><stop stop-opacity="1" stop-color="rgb(53.074646%, 13.356018%, 53.752136%)" offset="0.679688"/><stop stop-opacity="1" stop-color="rgb(53.617859%, 13.30719%, 53.55072%)" offset="0.683594"/><stop stop-opacity="1" stop-color="rgb(54.161072%, 13.258362%, 53.35083%)" offset="0.6875"/><stop stop-opacity="1" stop-color="rgb(54.704285%, 13.209534%, 53.149414%)" offset="0.691406"/><stop stop-opacity="1" stop-color="rgb(55.247498%, 13.162231%, 52.949524%)" offset="0.695312"/><stop stop-opacity="1" stop-color="rgb(55.79071%, 13.113403%, 52.748108%)" offset="0.699219"/><stop stop-opacity="1" stop-color="rgb(56.333923%, 13.066101%, 52.548218%)" offset="0.703125"/><stop stop-opacity="1" stop-color="rgb(56.87561%, 13.017273%, 52.346802%)" offset="0.707031"/><stop stop-opacity="1" stop-color="rgb(57.418823%, 12.969971%, 52.146912%)" offset="0.710938"/><stop stop-opacity="1" stop-color="rgb(57.962036%, 12.921143%, 51.945496%)" offset="0.714844"/><stop stop-opacity="1" stop-color="rgb(58.505249%, 12.872314%, 51.745605%)" offset="0.71875"/><stop stop-opacity="1" stop-color="rgb(59.048462%, 12.823486%, 51.544189%)" offset="0.722656"/><stop stop-opacity="1" stop-color="rgb(59.591675%, 12.776184%, 51.344299%)" offset="0.726562"/><stop stop-opacity="1" stop-color="rgb(60.134888%, 12.727356%, 51.142883%)" offset="0.730469"/><stop stop-opacity="1" stop-color="rgb(60.678101%, 12.680054%, 50.942993%)" offset="0.734375"/><stop stop-opacity="1" stop-color="rgb(61.221313%, 12.631226%, 50.741577%)" offset="0.738281"/><stop stop-opacity="1" stop-color="rgb(61.764526%, 12.583923%, 50.541687%)" offset="0.742188"/><stop stop-opacity="1" stop-color="rgb(62.307739%, 12.535095%, 50.340271%)" offset="0.746094"/><stop stop-opacity="1" stop-color="rgb(62.850952%, 12.486267%, 50.140381%)" offset="0.75"/><stop stop-opacity="1" stop-color="rgb(63.394165%, 12.437439%, 49.938965%)" offset="0.753906"/><stop stop-opacity="1" stop-color="rgb(63.937378%, 12.390137%, 49.739075%)" offset="0.757812"/><stop stop-opacity="1" stop-color="rgb(64.480591%, 12.341309%, 49.537659%)" offset="0.761719"/><stop stop-opacity="1" stop-color="rgb(65.023804%, 12.294006%, 49.337769%)" offset="0.765625"/><stop stop-opacity="1" stop-color="rgb(65.567017%, 12.245178%, 49.136353%)" offset="0.769531"/><stop stop-opacity="1" stop-color="rgb(66.110229%, 12.197876%, 48.934937%)" offset="0.773438"/><stop stop-opacity="1" stop-color="rgb(66.653442%, 12.149048%, 48.733521%)" offset="0.777344"/><stop stop-opacity="1" stop-color="rgb(67.196655%, 12.10022%, 48.53363%)" offset="0.78125"/><stop stop-opacity="1" stop-color="rgb(67.739868%, 12.051392%, 48.332214%)" offset="0.785156"/><stop stop-opacity="1" stop-color="rgb(68.283081%, 12.004089%, 48.132324%)" offset="0.789062"/><stop stop-opacity="1" stop-color="rgb(68.826294%, 11.955261%, 47.930908%)" offset="0.792969"/><stop stop-opacity="1" stop-color="rgb(69.369507%, 11.907959%, 47.731018%)" offset="0.796875"/><stop stop-opacity="1" stop-color="rgb(69.91272%, 11.859131%, 47.529602%)" offset="0.800781"/><stop stop-opacity="1" stop-color="rgb(70.455933%, 11.811829%, 47.329712%)" offset="0.804688"/><stop stop-opacity="1" stop-color="rgb(70.99762%, 11.763%, 47.128296%)" offset="0.808594"/><stop stop-opacity="1" stop-color="rgb(71.540833%, 11.714172%, 46.928406%)" offset="0.8125"/><stop stop-opacity="1" stop-color="rgb(72.084045%, 11.665344%, 46.72699%)" offset="0.816406"/><stop stop-opacity="1" stop-color="rgb(72.627258%, 11.618042%, 46.5271%)" offset="0.820312"/><stop stop-opacity="1" stop-color="rgb(73.170471%, 11.569214%, 46.325684%)" offset="0.824219"/><stop stop-opacity="1" stop-color="rgb(73.713684%, 11.521912%, 46.125793%)" offset="0.828125"/><stop stop-opacity="1" stop-color="rgb(74.256897%, 11.473083%, 45.924377%)" offset="0.832031"/><stop stop-opacity="1" stop-color="rgb(74.80011%, 11.425781%, 45.724487%)" offset="0.835938"/><stop stop-opacity="1" stop-color="rgb(75.343323%, 11.376953%, 45.523071%)" offset="0.839844"/><stop stop-opacity="1" stop-color="rgb(75.886536%, 11.328125%, 45.323181%)" offset="0.84375"/><stop stop-opacity="1" stop-color="rgb(76.429749%, 11.279297%, 45.121765%)" offset="0.847656"/><stop stop-opacity="1" stop-color="rgb(76.972961%, 11.231995%, 44.921875%)" offset="0.851562"/><stop stop-opacity="1" stop-color="rgb(77.516174%, 11.183167%, 44.720459%)" offset="0.855469"/><stop stop-opacity="1" stop-color="rgb(78.059387%, 11.135864%, 44.520569%)" offset="0.859375"/><stop stop-opacity="1" stop-color="rgb(78.6026%, 11.087036%, 44.319153%)" offset="0.863281"/><stop stop-opacity="1" stop-color="rgb(79.145813%, 11.039734%, 44.117737%)" offset="0.867187"/><stop stop-opacity="1" stop-color="rgb(79.689026%, 10.990906%, 43.916321%)" offset="0.871094"/><stop stop-opacity="1" stop-color="rgb(80.232239%, 10.942078%, 43.716431%)" offset="0.875"/><stop stop-opacity="1" stop-color="rgb(80.775452%, 10.89325%, 43.515015%)" offset="0.878906"/><stop stop-opacity="1" stop-color="rgb(81.318665%, 10.845947%, 43.315125%)" offset="0.882812"/><stop stop-opacity="1" stop-color="rgb(81.861877%, 10.797119%, 43.113708%)" offset="0.886719"/><stop stop-opacity="1" stop-color="rgb(82.40509%, 10.749817%, 42.913818%)" offset="0.890625"/><stop stop-opacity="1" stop-color="rgb(82.948303%, 10.700989%, 42.712402%)" offset="0.894531"/><stop stop-opacity="1" stop-color="rgb(83.491516%, 10.652161%, 42.512512%)" offset="0.898437"/><stop stop-opacity="1" stop-color="rgb(84.033203%, 10.603333%, 42.311096%)" offset="0.902344"/><stop stop-opacity="1" stop-color="rgb(84.576416%, 10.55603%, 42.111206%)" offset="0.90625"/><stop stop-opacity="1" stop-color="rgb(85.119629%, 10.507202%, 41.90979%)" offset="0.910156"/><stop stop-opacity="1" stop-color="rgb(85.662842%, 10.4599%, 41.7099%)" offset="0.914062"/><stop stop-opacity="1" stop-color="rgb(86.206055%, 10.411072%, 41.508484%)" offset="0.917969"/><stop stop-opacity="1" stop-color="rgb(86.749268%, 10.36377%, 41.308594%)" offset="0.921875"/><stop stop-opacity="1" stop-color="rgb(87.29248%, 10.314941%, 41.107178%)" offset="0.925781"/><stop stop-opacity="1" stop-color="rgb(87.835693%, 10.266113%, 40.907288%)" offset="0.929687"/><stop stop-opacity="1" stop-color="rgb(88.378906%, 10.217285%, 40.705872%)" offset="0.933594"/><stop stop-opacity="1" stop-color="rgb(88.922119%, 10.169983%, 40.505981%)" offset="0.9375"/><stop stop-opacity="1" stop-color="rgb(89.465332%, 10.121155%, 40.304565%)" offset="0.941406"/><stop stop-opacity="1" stop-color="rgb(90.008545%, 10.073853%, 40.104675%)" offset="0.945312"/><stop stop-opacity="1" stop-color="rgb(90.551758%, 10.025024%, 39.903259%)" offset="0.949219"/><stop stop-opacity="1" stop-color="rgb(91.094971%, 9.977722%, 39.703369%)" offset="0.953125"/><stop stop-opacity="1" stop-color="rgb(91.638184%, 9.928894%, 39.501953%)" offset="0.957031"/><stop stop-opacity="1" stop-color="rgb(92.181396%, 9.880066%, 39.302063%)" offset="0.960937"/><stop stop-opacity="1" stop-color="rgb(92.724609%, 9.831238%, 39.100647%)" offset="0.964844"/><stop stop-opacity="1" stop-color="rgb(93.267822%, 9.783936%, 38.899231%)" offset="0.96875"/><stop stop-opacity="1" stop-color="rgb(93.811035%, 9.735107%, 38.697815%)" offset="0.972656"/><stop stop-opacity="1" stop-color="rgb(94.354248%, 9.687805%, 38.497925%)" offset="0.976562"/><stop stop-opacity="1" stop-color="rgb(94.897461%, 9.638977%, 38.296509%)" offset="0.980469"/><stop stop-opacity="1" stop-color="rgb(95.440674%, 9.591675%, 38.096619%)" offset="0.984375"/><stop stop-opacity="1" stop-color="rgb(95.983887%, 9.542847%, 37.895203%)" offset="0.988281"/><stop stop-opacity="1" stop-color="rgb(96.5271%, 9.494019%, 37.695312%)" offset="0.992187"/><stop stop-opacity="1" stop-color="rgb(97.062683%, 9.446716%, 37.496948%)" offset="0.996094"/><stop stop-opacity="1" stop-color="rgb(97.599792%, 9.399414%, 37.298584%)" offset="1"/></linearGradient></defs><g clip-path="url(#a4b68ca272)"><g clip-path="url(#8ffcff5325)"><path fill="url(#0768088a95)" d="M 113.296875 102.847656 L 113.296875 215.859375 L 260.835938 215.859375 L 260.835938 102.847656 Z M 113.296875 102.847656 " fill-rule="nonzero"/></g></g><g fill="#ffffff" fill-opacity="1"><g transform="translate(111.527341, 249.317621)"><g><path d="M 7.464844 -11.914062 L 0.03125 0 L 5.132812 0 L 10.511719 -8.617188 L 16.109375 0 L 21.523438 0 L 13.589844 -12.191406 L 20.527344 -23.171875 L 15.425781 -23.171875 L 10.542969 -15.425781 L 5.535156 -23.171875 L 0.09375 -23.171875 Z M 7.464844 -11.914062 "/></g></g></g><g fill="#ffffff" fill-opacity="1"><g transform="translate(133.111881, 249.317621)"><g><path d="M 10.511719 -11.289062 L 1.460938 -11.289062 L 1.460938 -7.835938 L 10.511719 -7.835938 Z M 10.511719 -11.289062 "/></g></g></g><g fill="#ffffff" fill-opacity="1"><g transform="translate(145.086016, 249.317621)"><g><path d="M 25.160156 -12.660156 L 13.28125 -12.660156 L 13.28125 -8.367188 L 19.5625 -8.367188 C 18.535156 -5.660156 15.957031 -4.230469 13.15625 -4.230469 C 9.269531 -4.230469 6.1875 -7.496094 6.1875 -11.570312 C 6.1875 -15.675781 9.269531 -18.972656 13.15625 -18.972656 C 15.894531 -18.972656 18.289062 -17.417969 19.5 -15.148438 L 23.359375 -17.945312 C 21.273438 -21.335938 17.449219 -23.574219 13.125 -23.574219 C 6.53125 -23.574219 1.242188 -18.195312 1.242188 -11.570312 C 1.242188 -4.945312 6.53125 0.40625 13.15625 0.40625 C 19.8125 0.40625 25.160156 -5.101562 25.160156 -11.945312 Z M 25.160156 -12.660156 "/></g></g></g><g fill="#ffffff" fill-opacity="1"><g transform="translate(171.429112, 249.317621)"><g><path d="M 19.035156 0 L 24.292969 0 L 12.035156 -23.574219 L -0.1875 0 L 4.789062 0 L 6.28125 -3.109375 L 17.511719 -3.109375 Z M 11.851562 -14.679688 L 15.394531 -7.464844 L 8.367188 -7.464844 Z M 11.851562 -14.679688 "/></g></g></g><g fill="#ffffff" fill-opacity="1"><g transform="translate(195.532885, 249.317621)"><g><path d="M 14.554688 -14.214844 L 2.207031 -23.574219 L 2.207031 0 L 7.027344 0 L 7.027344 -13.964844 L 14.554688 -8.523438 L 22.082031 -13.964844 L 22.082031 0 L 26.871094 0 L 26.871094 -23.574219 Z M 14.554688 -14.214844 "/></g></g></g><g fill="#ffffff" fill-opacity="1"><g transform="translate(224.644021, 249.317621)"><g><path d="M 16.578125 0 L 16.578125 -4.355469 L 7.027344 -4.355469 L 7.027344 -10.171875 L 15.738281 -10.171875 L 15.738281 -14.492188 L 7.027344 -14.492188 L 7.027344 -18.816406 L 14.523438 -18.816406 L 14.523438 -23.171875 L 2.207031 -23.171875 L 2.207031 0 Z M 16.578125 0 "/></g></g></g><g fill="#ffffff" fill-opacity="1"><g transform="translate(242.465263, 249.317621)"><g><path d="M 9.457031 -4.011719 L 13.25 0 L 19.65625 0 L 14.648438 -5.351562 C 17.882812 -6.84375 19.875 -9.890625 19.875 -14.058594 C 19.875 -19.097656 15.707031 -23.171875 10.265625 -23.171875 L 2.207031 -23.171875 L 2.207031 0 L 7.027344 0 L 7.027344 -4.011719 Z M 7.027344 -8.367188 L 7.027344 -18.816406 L 9.953125 -18.816406 C 13.25 -18.816406 14.929688 -16.515625 14.929688 -13.683594 C 14.929688 -10.234375 12.84375 -8.367188 9.019531 -8.367188 Z M 7.027344 -8.367188 "/></g></g></g></svg>